<mxfile host="65bd71144e">
    <diagram id="k2WElGtABtMgV488y4s3" name="Page-1">
        <mxGraphModel dx="1118" dy="444" grid="1" gridSize="10" guides="1" tooltips="1" connect="1" arrows="1" fold="1" page="1" pageScale="1" pageWidth="850" pageHeight="1100" math="0" shadow="0">
            <root>
                <mxCell id="0"/>
                <mxCell id="1" parent="0"/>
                <mxCell id="2" value="Raw" style="rounded=1;whiteSpace=wrap;html=1;verticalAlign=top;" vertex="1" parent="1">
                    <mxGeometry x="230" y="40" width="180" height="340" as="geometry"/>
                </mxCell>
                <mxCell id="3" value="Transform" style="rounded=1;whiteSpace=wrap;html=1;verticalAlign=top;" vertex="1" parent="1">
                    <mxGeometry x="440" y="40" width="200" height="340" as="geometry"/>
                </mxCell>
                <mxCell id="4" value="Marts" style="rounded=1;whiteSpace=wrap;html=1;verticalAlign=top;" vertex="1" parent="1">
                    <mxGeometry x="670" y="40" width="160" height="340" as="geometry"/>
                </mxCell>
                <mxCell id="14" style="edgeStyle=none;html=1;" edge="1" parent="1" source="5" target="13">
                    <mxGeometry relative="1" as="geometry"/>
                </mxCell>
                <mxCell id="5" value="outcomes" style="rounded=0;whiteSpace=wrap;html=1;" vertex="1" parent="1">
                    <mxGeometry x="260" y="130" width="120" height="60" as="geometry"/>
                </mxCell>
                <mxCell id="21" style="edgeStyle=none;html=1;entryX=0;entryY=0.5;entryDx=0;entryDy=0;" edge="1" parent="1" source="6" target="10">
                    <mxGeometry relative="1" as="geometry"/>
                </mxCell>
                <mxCell id="6" value="int_depression_scores" style="rounded=0;whiteSpace=wrap;html=1;dashed=1;" vertex="1" parent="1">
                    <mxGeometry x="462.5" y="290" width="155" height="60" as="geometry"/>
                </mxCell>
                <mxCell id="19" style="edgeStyle=none;html=1;entryX=0;entryY=0.5;entryDx=0;entryDy=0;" edge="1" parent="1" source="7" target="9">
                    <mxGeometry relative="1" as="geometry"/>
                </mxCell>
                <mxCell id="7" value="int_patient_demographics" style="rounded=0;whiteSpace=wrap;html=1;dashed=1;" vertex="1" parent="1">
                    <mxGeometry x="462.5" y="130" width="155" height="60" as="geometry"/>
                </mxCell>
                <mxCell id="20" style="edgeStyle=none;html=1;entryX=0;entryY=0.5;entryDx=0;entryDy=0;" edge="1" parent="1" source="8" target="10">
                    <mxGeometry relative="1" as="geometry"/>
                </mxCell>
                <mxCell id="8" value="int_sessions" style="rounded=0;whiteSpace=wrap;html=1;dashed=1;" vertex="1" parent="1">
                    <mxGeometry x="462.5" y="210" width="155" height="60" as="geometry"/>
                </mxCell>
                <mxCell id="9" value="dim_demographics" style="rounded=0;whiteSpace=wrap;html=1;" vertex="1" parent="1">
                    <mxGeometry x="690" y="130" width="120" height="60" as="geometry"/>
                </mxCell>
                <mxCell id="10" value="fact_outcomes" style="rounded=0;whiteSpace=wrap;html=1;" vertex="1" parent="1">
                    <mxGeometry x="690" y="240" width="120" height="60" as="geometry"/>
                </mxCell>
                <mxCell id="15" style="edgeStyle=none;html=1;entryX=0;entryY=0.5;entryDx=0;entryDy=0;" edge="1" parent="1" source="13" target="7">
                    <mxGeometry relative="1" as="geometry"/>
                </mxCell>
                <mxCell id="16" style="edgeStyle=none;html=1;" edge="1" parent="1" source="13" target="8">
                    <mxGeometry relative="1" as="geometry"/>
                </mxCell>
                <mxCell id="17" style="edgeStyle=none;html=1;entryX=0;entryY=0.5;entryDx=0;entryDy=0;" edge="1" parent="1" source="13" target="6">
                    <mxGeometry relative="1" as="geometry"/>
                </mxCell>
                <mxCell id="13" value="stg_raw__outcomes" style="rounded=0;whiteSpace=wrap;html=1;dashed=1;" vertex="1" parent="1">
                    <mxGeometry x="240" y="210" width="160" height="60" as="geometry"/>
                </mxCell>
                <mxCell id="26" value="" style="edgeStyle=none;html=1;" edge="1" parent="1" source="22" target="25">
                    <mxGeometry relative="1" as="geometry"/>
                </mxCell>
                <mxCell id="22" value="outcomes_data.xlsx" style="whiteSpace=wrap;html=1;shape=mxgraph.basic.document;" vertex="1" parent="1">
                    <mxGeometry x="10" y="110" width="120" height="100" as="geometry"/>
                </mxCell>
                <mxCell id="27" style="edgeStyle=none;html=1;" edge="1" parent="1" source="25" target="5">
                    <mxGeometry relative="1" as="geometry"/>
                </mxCell>
                <mxCell id="25" value="Import" style="shape=image;verticalLabelPosition=bottom;labelBackgroundColor=none;verticalAlign=top;aspect=fixed;imageAspect=0;image=data:image/png,iVBORw0KGgoAAAANSUhEUgAAAdsAAAIICAYAAAAmOEQoAAAAAXNSR0IArs4c6QAAIABJREFUeF7svQe8JUWV+H/qvjeJKDnnAV3D/gzrrmF1hzAzzKCu4c+IyhpWZRATiruGVXkkh4mYiMuuYVUEDGsgDQNvwEgSFglmRGAGECUOE967Xf/PvX1vd1fVOVWnqrvv7Xtfz+ezLu92xVOnzvec6qpqAfW/WgK1BJwSOPqSS0b++tsdd26K5g4jIHcZaYhnRNDYNppsbtcYEduChO0EwHYRRNuDEFuBFLOklLMaQs6UEWwlBMySILcCENNAwAhIGJUgp4GUowCiAQCjANCQICbjxsjW/8X/LQEEwIQE2BT/JjaClBMgWn/DFpBiI4DcAABPgYAnQcoNEcinGkI8FTVhgwR4TAh4dGSk8biMosdFY8tjjSebj61ZuuiJTkXO/tcJagnUEsgnAZEve527lsDgSuBF5988bYdHH91DSrHbiGzuBqKxaxOi3Rog9gQh9gQp9xRS7iIBdgEB27Xwp/xr/2D8mqASJP4sKUNKInenXC27+mfnL6QKpVR7EyYiKf8shHhISngYZPRQQ4j1kZDrBYiHGyAe3jIpH5w2Ih5aO/bqRwZ3pOuW1xLovwRq2PZ/DOoWlCSBo0++ZPqjM3fcG0blviKS+4CEfYRoHCiFPEhEcCAA7C1BtqJKBKIqSP1BS4M4pnHfQav5Aii1E7lEEE0KEPeAgD+AlPcIKf4QNeC+RlM+MCHlusdGJu6765RFW0oayrrYWgIDL4EatgM/hHUH5i5dvWfUaOw3TYr9pYyeI4V4Nkh4NgDMBpAjZjQa/0LiLuFOCiAFRc6I1g1aa0wcGNEqPXIH1ZSH0RVOGoBT8bcmJwnyXinhLiHEHRLgbojgvgZM3rv1rlv96YoPLNxca2otgaksgRq2U3n0B6zvc1b8YOeRiVkHjIrGAaIhXywBXiQFvFhIuU23K+rKLR2tVRa0GoW5S8f9By3G7pTGEuRvhRQ3SoCbRUP8anKL+P2WA/a695bFfzcxYGpYN7eWQJAEatgGia3OVLYE5q+6ckeYmDYbAJ4pGzCvAXColLCXWq+GIjP8RJPHyWzLpraIFs+bxQotG9mulg46zYdGS9DMGdeh0IiWJyf/JfYkx0YJ8jop5RUCxI2bJpt337J00eNl61Zdfi2Bfkighm0/pF7XqUhgbEw2rt/m2n2mCzFbRGKuBPkGATC7hRBkRbeTtzqgTZBk3RBVFmgzMW0fQGvg2LnEbm1kE0COQwRfihqNG356+ut+X0+VWgLDIoEatsMykgPWj4XLxnefbESHCNl4XQPksQCwc7YL4aBFojFl425ARJvSFJVyzBc36YqPaLX3zu4mZNpvW2LnRbT+oCXKTVol22LMrBLcD0IukU25+mdnLvrdgKl43dxaAooEatjWCtETCbSO2ez4+Ib9xUjzFSPQOBFk9Lx2xajNdy2LZhZX8TXMtE8DDdqMgAg5ZThlHUfuu+y4xgCHxBnReoJW642Q0T3Npvig2BL95GdnLfprT5S2rqSWQIESqGFboDDrolQJtAC7x+Mb9m+K5jEgxEkAsH2cQiGgkske0aoG2wwmNUhk/gwCSFIdHjKmfLGElCUd8QnfEGUDaR7Q4jBlyaidVUJETiD1XbaM4LyRmWL5j8defw+AcMTz9aysJVANCdSwrcY4DFUr5p91/R6NiYn/TzQaZwDAttrbVYW3escjC4izYbATtArTCXuMvBBWUjqjNd66LYlq2jewOiThoEWA6HJIlCxxYnwxwexlZjnYot8xSLmgVeuPbhEQvf2n0994F4wJuoihml11ZwZVAjVsB3XkKtbuOWPjM2duI57XEPA1kPKQbvOCQEtb9KTX3GXRvh3x6Ww7tsTECrX4cnItsaeK4XRISgRtuihgc0jygDa7OiL/2Iyi1+73h8Ydl166qFmxqVE3p5ZAWwI1bGtFyCWB1yz98bYT05rHgZRLRPuuX7W49E966biVI4loCwUtWlh2B04K72yzkYhXcR4sEW+czrbzGJcDT05lgZYnJ25EywNteouWf+RP6tKvoknxmhuWveF3IOrl5VwTu85cuARq2BYu0qlR4NFnj2/z1KbGaULID4JsOW2hZ0TjRVGab1rMh1v8TDiX4C7sLG1KCmMgfZZF6Xgun5y6LLdpmTOizbCVWBhmOiSWuJ25O7voyL+tSxFcMWvWtDevHXvdY1NjNta9HAQJ1LAdhFGqUBsXfP7yGTCx9SkC5EcVwgVGtIMCWt9oDR8yG2gNAipFeHxcgH3ncXmgJSLlZHkg7g3XIQldYhcQvX/v3zfOrZeWK2RApnBTathO4cH36rqUYsGqtYsEiG+q+cwlPa5xHLydx7b3j4P3cYGgHdp5l9g7ES93QxRXl+hNY/LRaFS86MbTF93jpe914loCBUughm3BAh3G4uYt/8muo2LiPhAw3eyfdixDi8foZc/MUQ+UYZm3mMyl4zieQgojAKGktLyHjR/1B7ThO49tcuDLyZQRHrWm4rPJqagNUboWut5lt55HS244802fGMb5WfdpMCRQw3YwxqlPrZRiwcrrlwmADwP2KTrtPa1PFJJENg7QmpyjIdK3nccdEJPvH8kldvvScThoESAqCxAEEDWnBPdxzLxptmqCNpk8Uv5pAhp/W9+/3CdzMsWrrWE7xRWA6v7hn1mz04wZo3dD68Pp6L8CIlo0SNKQjYdWaYsSiBQLkKRplog3boTfzmMfh4QIyI3RcG6IKhG0qZz6AVrXvdBpmzIy2gJNueiGFcd8r576tQR6KYEatr2U9oDUNX/ZmleMjoxeJQFmcUCrMlOx7Fp27ZYgPHTKBCLZ7LaIFqW2saOWro6I1lygtUa0KYi7vegnaOPWlOWQ2EDLOOKjDR9XTvZNY1anLQKIvnDD0jefOCBTsm7mEEighu0QDGKRXThq1doTQMIXJECjWNBO7SM+XIAoUHQzzHBmlB8y+bmgNdwWi8MRP3I3spUCT2U6Zlw5hYM27aGU8rqFW/36sLGxsfr2qSKNSF0WKoEatrViJBJYcNZ1Zzai+EgPaRy1Bz7GkV4WtUUhSGtcy6JIRXhUa0FAgZ/LQ2VEBuMKIa3aWflbtDr3QtM4Dn8VUZguAfyqsWXdC3921oc31qaglkCZEqhhW6Z0B6jsBSvXfr4h4P30x83zRSG0cVSpw33/SC6LVgy0JlNNOabLzGWAlqR6p9q0TgWKlgFLg11LVNvzIz6IpHEPS52VMe8fhA2bn3vj2W/7ywBN2bqpAyaBGrYDNmBlNPeoFWs/DQ04hQZtx5CRLKAB0jJl3J3H1QdteWdpe7rzOIdDkma1gLajSNyztJq7Fas4Wrz7iE/iuDBBm1YV/UVA9Pwblh17fxlzrC6zlkAN2ymuAwtXjL9LNMR/9hu0baOHh1bpCCVMJwy9BhH/pWPSyncAQL75THYlZ9UJXT4OgkhGBC6IKH5PWXIaNtAm/fnrU3LkOXctX/TgFDcLdfdLkEAN2xKEOihFHrVq7SsAGmtARtO579V8ohAlsnFAgg9a3rJoz0GrNaufoI2b0j/QtmrGay/rXujMUjjhzChz0uKQSJCPjE48/cyfnfWu+gP1g2LIBqSdNWwHZKCKbuaCz1++XWNyq9+AhN3KAK1icCsBWhzS7aal/4OLubQjPq5zov4RrQ9oDYlY5BA/skW0jCM+WnauQ1LEzuNEkq7IP+7o/U9tNXrQXacs2lL0vKvLm7oSqGE7Rcd+4aq13xYSXk8vnOaLQrQV3YyUNRObd1kUqUgpkm5I5ktD7mVRMlILjmj5oDU5h7QmgQgvovUHLa0p7cG17jxWCBcnp0NN7UkmpZfThrRXKYqWYXxRibz9xm1++wKojwVNUQtZfLdr2BYv08qXeNTy64+BRnSRFbSBEBmur/jYbofqCKiUaE1VIf4SexVBa8qJC1r7prEwp42M/BWnrOscyMtuXHHsqyo/oesGDoQEatgOxDAV18gFn//tDDG57rdCyn2Kjtbqr/hkx8mM5rpPq/e5PNztSleVLZH/AB3xIUGrdD/eaZBh72k3rXjLp4ubgXVJU1UCNWyn2MgvWHnd6Q2Q/0Gbz9CLBgCirolCC09/rI/4dJTOtnqNviKlw2ju147wlVizISls3Evs3CM+xUS0yCK0UnCeJXYNtPEwTchm4x9uXvWmW6eYqai7W7AEatgWLNAqF/eapT/etjmteb+Ucju8nRUAbcaWcnfUGuY3DcmMbnKjNa4zgpj+uE7C4VBWKy3Kktsh0cIztElOORUHWrV+OupXok+H09ZOywYtMShJ/tRlMIuUT0ZPbNjplgsWT1R5ftdtq7YEathWe3wKbd1RK65bIYU8iQNaH+OYRLS0RU+qLM44ZiLlbIecACFJ2IFkXC65xE4HTmmuskGrOCQuiBD9ccpp0ECLyEFhum3gWs8QOWVlJOCam5Yfe0ShE7IubEpJoIbtFBnuZ598yfT9t9u1dTsO8sm88J3HZYAWpHxaCrlBghAAYmsBMv76EBIW4oGNaVhZEe0gfC6v76Bl7DzWxK/+SUe1vT/i0xWmA7QdNyxqwpG3nHXs6iliMupuFiyBGrYFC7SqxS1cOb4YQJxnti8ctAXtPP4rSDEuIfqRiOTPR7Y0775ibOET2XYeteRHO2wWm57TkNFLI4BXAojDWwA2kEpEaymj3dEaGdHSgZMjoi3riA8vojVSOSNaR+Tfui7DVJnOcJkg7Sdo456ERrSoHCZvuvd7M+HSS5tVned1u6orgRq21R2bQlu2cOXa6wHgFWqh+YwjEmiqRrf7l27vRPtQ5o9BinO2v+Wvl1566SI/4zU21pg34+Vvb0J0ggB4URr1WlBZ4Fd8TDMcGq1po4GH6Wkir2XRTjiWraJU0HakkukDF7Tue6HTknK/y1aUFolok8ElHDMpLrxp5VveXejkrAubEhKoYTsFhvl1n1mz0+YZo4/0BrQqihDjeLMU8sSr/33eT4oQ/aGfWf2aESGXgZTPxMqL+WKLaPN8XIAkS4f/9ucKB5mg5UVrFGjRaC1zgZZbTkO+89h6m1jXV2lMb+5845L6C0FFzN+pVEYN2ykw2keuXPuZBsDHDdgGRSGhR3zERgHyU1d99IiVZYj88DOuWCaEOBEApnXLLwS0Gp+Ki9YyAavBOO0HZZxcy6IIaC3RWhroFQdazd0iGqS5DWj1mrSZDgkRr2be+aNHfFigjW+XEr+8edVb/h+AcAitDE2vyxxUCdSwHdSR82j3gpVrfyQA/jFj3pXttnyAZECLBkm4cZQg7pUQLVjz0bl3ezTbO+mhn1n98hGILgOA7dMVU4s97FwxSFcUehTK9Sk4D9Bm5Mw9CoWzG5cD1yHhRrR80LreZZcLWkN9U4Ux1AHTpS1CHnj7irfe462kdYYpK4EatkM+9M8++Y7p+2/3yAYAGE1CDDJwsi97Bu48/vXG5pZX/OgTC//cC1EfcebV20fR5K+EFLtTB3ja7Sjt4wJlgRb1bowd2gMHWg+nTXEWs8rU6bQ7om2lQFK5QJvRl0y199y84tiDQNTRbS/m9TDUUcN2GEbR0odXLb96TtSYNp4XtEE7j4X4/bTmxhdf9vFXPdpLMc8ZG5/ZGN14nxBiZ7Te0kDritZCI1oeaP2jNdcqaD92HmuxMXOJvQzQJi0h3vkLObHvTav+9b5e6nZd1+BKoIbt4I4dq+ULVq79jgB4XfyuSc2S/qmEBka5QaAFeHL6NPE3P/zw4Q+wGlpworknf2/PaPr03wDA1kavyaMrHfOaQ05x1GzvjHNHbaYMHkQSV0oL/mxLx66GDg5o454gfU1+skW0tBzcS+xizc0rj53nHvGClbsubiAlUMN2IIeN3+iFK8d/DAAv1yHAfU8b9HEBAXKi2Xjx+McPu4Xf0uJTHnHq5f8qR8SFANDR8zxf8XE7JEkPvGBLQ6KfoG2xi/uelqtLg3TExw3a+FXEZNTc4bbPvuOx4rW3LnHYJFDDdthGVO2PWLhq7WPQuguZfB1rg4hMDS4KkExsrD4/Z/VHj3hvFUR7+BlXfAfakX0BR3wIiJbxFR9etEZFtHi0lr6adHsD/QRtZ6gy6mNzSMhB6eTPufOYUuLO5rqmlG+/7ay3faUKul63odoSqGFb7fHJ1br5q67ccUTO+EsYaEOP+MgtW54e3WntKYc+lavxBWV+0XE3T3vGfn9+EqScQSPGdDiKi9bSjjiXjxWHyAURIu5NiapIMF1RLQ60KtLtTpuyomuMrSZt5c88kX95oO32XYKMttvunhlrx8YmC1LZupghlUAN2yEd2Fa3jlq69lA5Iq/tdpEPkLAjPq16hJSvuupjc1vHbyrz7/AzrjhfSnkc3aD6iE9bNjKzkoEBUeNeZl0jTu2K/B2rI50mZGrOD1qjWYQzkqSzPE86qb3zH2nAgTfWx4AqM9+r2pAatlUdmQLatXDFdecCRMebsLVFIeGgBZDNJ6c9uu3PPrxoYwHNL6yIOWPjo41pGzeBhBGz0KqBlqCWFhoaGHJCxB3RtlLgqfJtrqNBbItoETkoakuDOO4FEvm7ZGTSXlMX/J2/hOh9v1j19rMLU9i6oKGUQA3boRzWuFMLV4y3otpDVbNlB23gzuPOflCx9OqPHvGxKor0sNOv+CqA/Je0baYc+JF/f8/S+kdrDtD25eMCmlbi3gMxXDbQWr9LS6pmzGGbnOjNda2l5F/cN2s6+N7xXcWJUrepNAnUsC1NtP0veOHy8R+DgJf7LPdpAVSmE4wopBEduPrf5lfyVp3DTrt8Hgi4Ku4Q7nDw5MQHrWm/8yyLGq3LdIWMR61XEHYLoL/i05FVpniuQ+LeNJbpDxO0cWtCQYtEyh3tdoPWvbku2jK5161ffOe6/s/6ugVVlUAN26qOTAHtWrji2jsliGfbornus6AjPknB7WW75vY3PzbD+ws+BfSTU8TY2Fjj+tG/73xdqKxlUbUlaqBkg4QLIoMFWvsRH4bTlhWjAnoi8kx+Dt0Q5Yj8rdd6xroUNeURt37+7ddwdLFOMzUlUMN2iMd9wYrx1pd+drJFc91ogY5o1YjAsqP2l6s/OvdvqyzOQ0+//EoBcj59uQcd9RpRlds+Z0RRFmjxaC2O1OhILvWR+BuiuBGtD2jbLVQKtkX+ZYHWIScGaON+iLN/8dm3vq/K+l+3rb8SqGHbX/mXV7uUYsHKta1ITlDLpt3KkzuPUXvGXO6LomNWf3z+xeV1KH/Jh51+2bkgIdkwZppZfHk5H2gRY+4VrcWJ8ZVWc8BSp8ntDXDP0mruluK7qaPiWmK3RbU20BJAzB3RukFLpzBWR5oH3j+rsis7+WdPXUJeCdSwzSvBiuZvXcg/bXT0MTZoaYueDYQyvVWN4+TElv2v/eRR91ZUHO1mHXb65ctByo9021hMtKbhBqeizqQOQF3Rmh9okyFkfL+3eNC67oUOWz4mJGB8Ls9QX0tkz3NIbLeNmU5Z65dpkyPb3/CFY5+o8hyo29Y/CdSw7Z/sS6153ulX7TMyc9qf8LAorjrwKz7oAZERGN3nio8een+pncpZ+JzTL39LQ8qvmX4FHdG6rxhMG+W8tCJTsRsi5YG2VTKO+QLeZXs7bUgGZTjoiDd7oaSSqlTQdtqrrE7EOiAbI8+5deWxd+VU0zr7kEqghu2QDuzClWsOkbLxa9tFA6mHrwvBPwqZnGzsfe0n+/PRAe4QzjntijkNiMb7H9GiRDI+l+cdrTEiWitotQq5crLvPPbXpe54hu88ppfQYw7Tz7sf7LCWgIC27bxG0bzbPveOq7n6WKebWhKoYTuk4z1/2TUvbAiBfggg/CwtHYUMAmwPO/2yV4KE61JbWUxEa9pvOhrjRrT+oCUAnui37Ss+dLTWidmU/6dOGdt72n6AlpaDG7TuIz62q0+lgLfduurtXx1Sk1J3K6cEatjmFGBVs89bsXbBiIwuN2NW/iYW57JoxpZuERP7rP3owkovIx966mWLQEBnE5cNtK73jxpuzDVMnUftv/OBFodIumLqjta472m5Ea3PzmOnLmW6h0a0Svf7d8QnO7C60yYj+OKtn3v7+6tqE+p29VcCNWz7K//Sap+/6to3N5rwdd3qJwYXtc0Z82E8135QltJa5lHst+Zjc+N3xBX9d+ipPzwDhPiE8sYSDUKJdUKkX9yjKzEr6Ig32yac3WZeHmj97jwuBrSmY8CVU3mgpSPe2BMia47dJFL9U6dNSvHTWz/3tvhzlvW/WgKaBGrYDqlKHLni2hOEBOW+1kKO+HTlldiYzn9EcNTVn5hnRNJVEu+hp11+DoB8j22Htvvmo7RHzmhNc0hQWSRpiLg3JaqSPc1mi2j9QKviyBb581dHOhzLtJ12ONyRf2hE6wYtnYIH2k4/n7r1c2/ftko6X7elOhKoYVudsSi0JUcuX/tvAqJl3UKL3Hmc3naoGM4fX/2xea8otBMFF3boaT/8HgC8Jo5ksMJdEPEAbaYOd7TmB9qkaMaGKO7SMR+0riV2LTbGw/SMIOP/5ILWGDrCGUll5ABtJ2rFXRbT4XBF/r94YKvR+o7kgifukBRXw3ZIBlLvxoIV134CJJzR+r0c0BpGbNPLN83demxM0Pa9n7IeG2scOvLiDQByZm9BSxj7wIjWB7StKkiIkMuiipdgjFgZO4/doE17YrLbisnSdh5TqyPi6c3Tb7lg8UQ/Vb2uu5oSqGFbzXHJ3aojl4+fLECOlbHzmDKOYlLuu/qT8+/L3fgSCjjs9B++TEr4SRVB6x+tOZaO+/IVH1tEizgcriV2xRlBNE5zVnSViQNem5xsl1Z02qu0MVsDvcS+afutZtx1yqItJahwXeSAS6CG7YAPINX8+UvXnCoa4lO0TQozjo4o5CNXf3zeyiqK9NDTfvBVkCLzib20lUm05mCY8x2tERQiBSID4hWtWZZN4x4N0xEfW0RLrBgk10K7B5NOEfqNY4DdmrvOvOILCzdXcQ7UbeqvBGrY9lf+pdXegi00xKc69hepJzU1ToiwoxB4emLztJ3Wjh26qbSOBRQ8Z2xsVDT+7lEA2MaMgOgoxUhrUlFNwpZTRvZIwIQt/qaMdUdr3Pe0mrvVZTWqK/ZAskBdUhgauiGqONCqSLfrSstp2725Ww3bgDk6FbLUsB3SUZ6/dPWp0Bj5FLVs2u12btAq1qgVEYjK7Uqec+plpwmQnyRBSwdJSRbu0ZVObGlqFSuixRuSZnVDhAtaPkRcm8ZsKyR0ZO9YIWnvNEClYYnsWQ5JAUd8cJMRy6mG7ZAa1AK6VcO2ACFWsYg2bMVIHNkq/0KNI2HoTYhsEKOw2+p/m7+hCnJZ8P7LZ2zaJWp91HtHNYhUwlBrU52gzVBhuHYeVxG0FofEtcTeGUhck21HfJQBRnQllVMN2yrM+mq2oYZtNccld6tw2IaClgj9qGhNwKfWfGz+6bk7UUABc0657JtCyDfqDod9WTRN7Yz8hxa0eY74IPqirMDSEa/94wIW0LYfuZfYSdBqRQctsUcAu8t6GbmAaTuURdSwHcphBTBh2yPQtuQphJTN5vOv+Y8Ft/dTvHPGLjtSNOQVvQEtzyExjL1zWdS9dNxKUXS0VqkjPoloLagMBm2ncHKhw/aeNiOlzvp9Ddt+zvhq113DttrjE9w6FbY20OaJQtJylRriPx6fnD599tqPHPpIcCdyZHxl6xOD0cStALBTJk5NoeRmmFY7HY3FT2zRmk1ONoAQ5SYts+08NiHBjdbct2hl+oN7D1mRZ1trjqiyxEBIMpdDUs4Rn3hkOo3PvCivYZtj0g551hq2QzrAKWwLBq1i/+3GUYK4RTQah6/52NzHeynmOWPffYYQo/8HQuw7NUFbULSG+gGDBNo8dx5nFB31ozLOTOZ5DdtezvTBqquG7WCNF7u1GGyd7x+VpTQi9FMiESSe06MQIX4+AyYWXvbxV7WO3pT+b87Jl+0uRuQNAJABrev9o9osrpzyRbR41JqKzxZ6x9Ead+cxN6K1f8VHba9TRgqrXLpUtZ3HYaBt5dpdPjnzii98oD5nW/pMH7wKatgO3pixWhzDtpHsRnYaxzJAmy4g/iFqynnXfmrh71mND0z0ylMve94IyLXF7TxGgKiszoYuHVtA235kA63fxwWCQIs2z7ZCQsvBvTt7sECbOCStLiNL6LvLp2rYBs7fYc9Ww3ZIRzgLWydovaKQzDJiVnau92oATYiitzUnZ128duzQyULFPiYbh4kfvlM2xLkgYURtluJFWKt1yqlUh6Rjuy1ybDdeSnZEq8Wicd/JINMmp1DQEhUmxaWxuVKDtnqCq5nFIXEd8dGaFeSQGMsKcSk1bAud2UNVWA3boRrOtDM0bG1RiMs4BoJWBchN0Yh4x/jHjryLNv38QXnlqd97wQiM/BAA9jRzuc6Jpjlq0HZkgURrCuwcz9MvQrl0iQBtks3U05TBtsjftiFKWZZAfA/zeUZDUj8FXb+vYcuftVMzZQ3bIR33LmydFzIo9oUGcdEfN5dC3DAKzQ9u2bzhzrWnLHrKZxhevvR7245unv5cAZNfFULM7u3HBcjQUKEVziQ8b+qL2KO11lOyBO0BN1qrj/h0Nc8GWnzncRbE3f+uI1ufmTy10tawHdLxbsFWQvrONu4mbpHjX22gTZ9zIeIRhURSiP+Vk80Lmo3oN41Z4kl4cuMmELtMAvwRQO4/OmvGxlkTItoWtojnNRviOAC50PYBePdGH4+INiMat5wCI/92HfZorfXYgmrlYTGgVXUid+SfKgT99Vp1BUSZmfGj0Ii205dMdq6M4pyd1JaItpUukgAb4KmZv6s3SA2pVc3XrRq2+eRX2dwmbD1Bq9haAjM9NI6a6Ud9hzRGsUcpSTrcc1DHVCnK5pD0A7R5IOJaYs/0xyUnBWIuGZWhSz044tOmqT7d1b7WsK2sOaxEw2rYVmIYim+EClsctIrXTtqRMoyj30UDZYAWD5R94DEkAAAgAElEQVQ8HRIlWkP4jzxPHYLkW3CWwe//ER9TTjRMh23nsdIfBmhbsqoj2+Jt2bCUWMN2WEZS60cK2/ygVWFnh4R7uY8RhWgVcpf83DcfpULiLosSrkZm2dYW0RqSazcgZbBtWbSsnccaEh1Ra3Hv/Af0iA8zou1qVg3bITWoBXSrhm0BQqxiETFsO9+zzTYwWRYlDD0rWsPzpqvKFohYP3HWQZGyLIk23hB5GaAlI3+XjBKi2uRUg9Z2dyZXl3B3xtQjM10yEZDpa955nHHTlPStpePsvxq2VbSG1WhTDdtqjEPhrUBhq9gX17u1uElKqtQCIrBjLIuWBNpCN0QpoOc5JHhwWDXQKlKirv5KxrXYyJ9YHyD0iRf59/eITzvgRQZ+A2yoN0gVbs2Go8AatsMxjkYvDNgWAlo8jsgfhYRHtIWCNtM99/tHP4Ckwa47om2lsKC6MjuPCQloS+xlyMnvnb8qS1tE67fzWJ10cbk1bIfUoBbQrRq2BQixikUosHWBVmGon3HMH4WYoFWRzlzuczNMGyY6sudBhHEvdKZGlkPSOmRSH/FhXVdJD7cqwCDQtsNWfVarJalRbfqshm0VrWE12lTDthrjUHgrEtiWCFpetOYXhfBBy/+4gHNJVIlo8egde7+omF9iSTSVEVFuMvI20JYZ+ae9cMop02E08k89L/wsrfLcVPlYhG6viQtaVJfI4c2UGgjaOrIt3IwNVYE1bIdqONPOtGEr0w1S/V4WxcVshnEZ0x9nISxrGRuiuBGt0SwLRHgRrd/OY360xj9La3LOFvmTg9IZ5qrtPFa8BEQVO3JqJTO6xotou4XWke2QGtQCulXDtgAhVrGI+UtWnypFDFsuaHGI4Ia1kChEq5ALkXDQ0gAh5YSAFLfHZtlpVne0xv1cHhqtocWXBVpX5F8eaGnfi+G0kZlDQYsU2LpBStQbpKpoD6vQphq2VRiFEtrQhW15oLWEnZ0wybrcFwja8A1RJYC2oGXR4kHrWmLX3BrlT1tEywNt8ZF/NXceK9O2I7YatiUYsyEpsobtkAyk3o0WbKN2ZGuDjLFoGxeTd1nU+omzTgXkyl7nQVC0lkrB+f4x00+uQ8KNaJOime8fybUD7YExWuRqrl2GWV1xykkpyqZLgZ/L6zhm9DQcHNC2+lDDdkgNagHdqmFbgBCrWMTcJa2Px0Py8fikja5l0bygbZGa3FFbgzbjDvRh57EtokWiVjZoWwnjxGaQ7FjfGICPC6jzm/SA2q9rnhZP1+dsq2gQK9CmGrYVGIQymoDCFlku5EZrKYNp49mlrNW8BkVrrvePoREtAhgksufKKI1oiXIzHg99xCfcIXG/y87Exninsr5AtrWmiipOGQVaWg7tHMzIH58fBRzxSX2ETBWqYKgjPrrz2pV9DdsyrNlwlFnDdjjG0eiFHbaIcVRJYZTnNo5+Ea1qhm3Lnq73j+WC1idai2XUH9C632UXCFqli6EbomxOG+P+bJfTRvpRGV1zOBx80KaV1bAdUoNaQLdq2BYgxCoWYcBWWx72j9bKMo4Zq4hU4Y7WKNiihbUTE64G8+MCuBy4oG1Vzt0QpdZkc0hckb9WkvKnTU7EmCc/h4LW4ZBYr/UM33mcSKnQiFbtSw3bKlrDarSphm01xqHwViiw1UDrH63lBK1WIRci1QMtDolUvG45cUHLj/zLAi0ZGnZ0tTzQ0igOB20S+XuDFmmN4veoY17DtnBTNjQF1rAdmqFUO5LANjdo80QhnbwZe8QFrXtZ1D+ijVtDR3LZ7T148GeLavsBWtcSuy2i9YNIZklAucuQKyefyN8i5aB7oZVRR72dtEbzXbrWGgtoWzKqYTukBrWAbtWwLUCIVSyiDVvo7kbOGJNsYxEQdx+zjOMgHPFRQO9aFo2fG6lSYShD7RPRogFVtzbcnqctIZtNejFGL4o74pP2pFg5+b3zD3LaCgIt6bTVsK2iKaxMm2rYVmYoim1ICttA0LYtii1a64FxdAeLmtDoqLWyZ2k1unMhYl9iD4toeZG/n0OSdK8vusT/ig83orWBtuWlPd2oj/4Ua8mGp7QatsMzlkpP5p6x+lRotCLb/htHlSfKOpwBS0uwrUaVeFilludY8tMv7+BGajyAdMxyX84cq8uiqFCUJYz4D/cSexm65LfzmOuMKP1BlxXUkvg7j+2rIzVsh9SgFtCtGrYFCLGKRcSwlZ27kbEAEDca8YppcREtH7Su949pH5xLoplKCTxMiZ3HfnKyQ6S7h7pwhyR457ExyKoz1vWkCgWttgxhOCwSnm5srC+1qKJBrECbathWYBDKaMLcM648FRriU2UYR8LkxO8JtQqNRWzSpmce5F0+9oxojf7EHgc5LG6HpAdf8UGbaFs+RvqTyIkHWh85pSK0DGZJoO3VzuPOckBHT+J+1rAtw5oNR5k1bIdjHI1eoLC1QIRlHK1XMSqEU+1Q9i/U5hcP2hgMNGAGeudxoaB1RWu2O49tqyN2h6W7ekKWQDpt9ojWvvNYLVRdOkbaq6ilyyGpYTukprSwbtWwLUyU1SqoBVvZSL9na7vZKD9oO4aKZKYJ4lRarnOimZSGvaMt8rCB1n4UKjSizQNaPG9+XQp32so44kM6bUr34za3/ndjvYxcLUNYodbUsK3QYBTZlMPPuPJU0YVtqRFtRUCrBDy8KARnty1asyyJtuuPEV9qtOZwOJzvaRWWuSL/FCKKbhL6lJTWl3f+Gfeq0CM+LodElVEN2yKt2HCVVcN2uMYz6U0C29QCGj3lGceydovyI9oOxzLtpyFR3hEfx7Joa9Ga3HlcULSGUjz9kQtaMlpTdMUPtIl0+gLaAo/4KE4bD7TZVDVsh9SgFtCtGrYFCLGKRaiwNa10GaBVTVMxS8d+oOUZR/+INg9oy4z8Bwm0fk6bKXFanxQHy4hq1dHmH/Hh6ZKeqoZtFa1hNdpUw7Ya41B4K+avunJH2Aw7FlHw5iIKUcrIlFh84c7W4lVaGrLJWWSxCRpiNUg4QLk4n16XQE5qae5E5k935B+6IYq3xI4LyraL3Qg1lSLKAC0v8o+bofRaAmwcqY/+FDsZhqe0GrbDM5Z1T4ZEAi/7+MW/jkAcknTH6z1tniX2UNA6Iv+yj/i0qveKaJH2uhwS5HWMDtpWqTVsh2QSltCNGrYlCLUuspZAHgm85OMX/xq6sC0MtAQQk/JtoMXzpvukLFGt9f7s8IjW54iP8ypGJXgm+qLBlnoVsXFkU32pRR7lH+K8NWyHeHDrrg2mBBLYeoGWjtaIrU6ZNdBA0LartC0f2+7Pxt/BZt5CI+u03fEscOdxgaCNI9satoM568pvdQ3b8mVc11BLwEsCbdjKzDJyO7cKNe7OYzdoWykGaedxgaBVlo5dkT9PRjVsvVR9SiWuYTulhrvu7CBI4CUfyywjJw0epJ3Hfl+EUjFH7zqO03We5z1Lq0S0PNAaqdJ19GSUatgOwgzrTxtr2PZH7nWttQRICZiwHSTQTo0jPtSNbDVs64lNSaCGba0btQQqJgEVth6gVaI110afwdp5XLUjPrHKmDKuYVuxyVSh5tSwrdBg1E2pJdCSQApb23va+ogPBrzcHxdgHvHBQNvKuqneIFVPYkICNWxr1aglUDEJxLCF9JytsenXBlrX+8fAncfI+0lFbBU44pMbtIroeBuisjKoYVuxiVSx5tSwrdiA1M2pJaDDtridxwRoE8iYEE8DvWof8fEDrcshCQNt6xjUptHN9TnbegqjEqhhWytGLYGKSSAL2+JAO2hHfPg7j6sC2pYa1bCt2GSqUHNq2FZoMOqm1BJI39nCIVzQxnEavbQcv18Mj9boUfE74qO9gcZeuSZVcY/4OEGbCWJ5Z46RZlmW0NNHcek1bOs5TEmghm2tG7UEKiaBVmQrpfrO1tiQo1zI0A/Q+h3xIReo0aZnfvS68zjPprHMru+sPniAtoZtxSZSxZpTwzYzIEdfIkcevef6Q2Ck+TcNKf+mAeIAANgdpNxDAmwLAA0BICTIjtxsxzKQke4kJ7+80jYsxKTP+PyYDsU2wfZerfU8tlzofQCterXsRmlk8UnHrOpt2i2kwE7jyCgEkYNSCss44hJIYhoJ0LT1JEgO/JuPAGBvCTAtbUIeiMR9xccS74geraGiKOnjAmUc8ckX0aLSyxyzVWUYEtnKB076RxgVX60YG6jmtBQqAiEeByn/BFH0R2jAbyCSt8IDG24Vf3fBxID0o+fNnJKwnXPy+DYztmksFBDNAyFfChKeIQC2BpDbAIiR7ihEXROF2iQbaGlq5Zv4NuPoAq0NXyYs1dJomCrGkdeEjJLjcipNRk6HJHY4aBSrDglXRsYir8OLUX0mG2hxEKRkHSzQ+nxcwLl8rKgsLcPEwfJwSJLSEOc2ELZzYVSs7rn1L77CCAQ8CRIeB4AHoNm8FBojXxe7r3i4+KoGr8QpAduFp1+zXzSj8Y6GkK+VIHYHgJ0BZAxVAhBc0Jr2O49xzAA8q0usaM1COlcUosmBC5EyQBs3xWYcbTKyRCFO0MYrA1MDtH7RmmLWBuiIj829TFWMSOWcc/h8m+KwRQjYUpjGwyDlr0DKL8LuK78tBGV1Bw+gPi0eWtgeueqa1zWixgkA8nkAYldoL/8aBENhm4CWXn9LCiouCukHaDsdzAiGKyMFiQVFtG7QpgOCB4dmQ2xRiA4RLmhVtaCjfqM/XhEtonzsaK2VEIFIKgzDRvDk5PcVnyBdctx5zI1oSV1SxFosaFtF17B14EfAYyDlLSBgTOy68sc+sBr0tEMF2wWr1r5aRHCiFPJFQsL2CFo7P9EGsgzQuiESGK1ZvO92R61RSEVAmzF+5LtsDRJc0CZFM+SUC7R4oKhG6P0GrSoMHLbBn8vLo0v8Iz7O79IqTiPhASIOh5IyMKLtCrSGrQuJygD8HkBcIHZbsdyVaxieDzxsF3z++l3ERHMJgFgIAHu0PXptnnE97Jaxp51/rRSH8cy2wb4sWla05ncsgx+t2WSkTgnn0RUFtCSxFAepDNCmcaA+pW26pFh2BF7258pGuMJ0iYhoc4M2z85j2rFVnFBHRNtKq0a1CEyTqsoCLaGjmdGvYWvDImaY2789CCI6B3b97OnDvMQ8sLA9fPnal85siNMkwKEAshEPsTmxKwlaZc7GLfSHCGFQuqWZnMjMAgZESHtlN55JJUYVNuPIA62RyhmFuIyjbAf/eFfDdcm9xJ7W6HRIFGbTMizvLK0faE2J0/pSvZ3HFk2w6FoWLzVsKdjqoMVkLe+FqPkpsefn/2cYIlm9DwMH24UrfjxXwuQZQsCLtThK4W33Wcasoc+73nWSDp1vocaRB5FiQZvHODKjEBvnO4LnQoRwNTIENEYwM45WTDqOQtlA2xk3BXRZbbPJyRX5a+6f8qfNISG9n07D6q/45NMlfK6mjGUoff3OFmGkDlnKAc5YYCmvg4nJt4h9v7humKA7MLA9auV1LwOQZ0mAv8cHIDxa4+485gIkVSdXJILw3+JBx48ck961W1TTdc30Wx2SbNRqmwRcOeUzjrQc3HLqAWhRmxIKWpfTNligTSL/ljhwTzNRL+6GqGBdSkRr6lNq/nmgbRVVR7aIU6pEProsMdm2f9sI0PyE2P0Lnx0W4FYetq/67I/2jaLmF4WEV1vNK+ZAtUfJFoW0zlSS4YthCSq/87jzvhqXkymHfoK2u6JgTKSMg6vMUeMPSy8ZG324G6K4MjL644BIcbrUp6/4BDpt9rO0aqFlbIjChyVUl0wM1LClHEMSqpoQlXQSZPNy+MuDrxfPvXTLoEO3srCdMzY+c+vtRz4hpfyYkHJaGGjtsJ06oO3IgfQrbA6Ja1k0nQLciJYErTJPiVglDlvReeeOaP3O0mqmP66TVMTiN9e5o7Xh/YqPH2hdkX9JuoRoYQ1bLOphR7MZY9Id0/aK5QMwMvFKsdu5fxhk4FYStu0lYyG+BCAPaS2blgHa8J3HSGsUiNmep880/62jQ2belC20FGII8OXEj9b4oO00ITMXaDkM7BGfSoG21ZgyINKDXeyOnceDCtqW8k9t2OqgDYhmkyyGkkxC1Fwo9jr76kEFbqVg++qxH2wVbbPNqdBonNQFiCOOUSINLkTCQYu0Ji9okyIJ0JoUM3XNA7T8aK0s0JYVhVjDzsQZIWNizCHPhrJBoNWkbZRBVsq4RasM0Po5bXxdyiwepz4C6pi1H+OeqBb1kK5G/s11qYfrbdenJmwxxzoUtJiCZMpqiLeK3QZzt3JlYLtw5Y8OESK6GACen6zXeRxfKQa0nsYxk7y8aK24iDbYODpMTuWNY8cZIUGrcZqrS/0+4mO4FxZIxI9y6lKgnIbxiA81JaYebDGHUdczBngT3WXkFdG7Yfez/0tYXup4e0k9yFAJ2B616vpjQMB/gZRbhYCWCxF7RJsHtGVFa27jaI38XdEa2WwlXLeqIfc9LRGH5Y9CnBDpwc5jdJg0ZLOjNWLMk5/7tPO4QqCNm4JFU11VTZ/hYjfzpn6KY845jPLUgq1uYBhQza4WJTrliGYVmXfqiOQ7xV5n/3cPGFlYFX2F7YvOv3na7k9vOA0kfFRZI/KIaLmgbaUr7IiPEtHyQFt4FDJAO4/zgdbqTjjP0pbzFR/N2Bs2JhS0Ll0qD7S0lDtPSP+r84BwOBAfoTPV1QzcIz5u0KY9wYeFAK3TaePZ3KkBW8yL54CWyqfndZTVfSzla8VeZ3+PNzL9T9U32C74/M+3a0xuvggAWtcsZljL3+hTBmjNOUd70PkggnvQPA+7BxfCOxx8bkTrNo7+UUjqELsbWR/xsWO0e70pLckCPiuYd0OU4twSLU1+JmZlOrEMqxs/cugS01YPP2x1YHIgq+kg7YER2/0xh67zWwNeInY/+wbm8PQ1WV9gO/+s6/cYieRlQsALvEBLjVm7ENrDro/4dKXMjELcDNOUFvNY4yRF3wtdBmhRp41glP2zgqocuA4J6bSlnfXeeZyyxzaYA7Dz2JjatPNbzu5sP/s8vLDF5B4K2lY+Pa+jLM2ZykRnTQBxkNjz7Hv9Rqr3qXsO23nLrztg2ihcDxL25oO2M+My46GZta5lR7zW4s8/uiHiH63xjKPfblGujNwbfVSx8jdElRWFOKI1j+/S+oDWLqfqgJbnkJQF2oyUCo1oSe+no5y2OYfrYZERbXeGDCdsMWfaE5bJ8GFKYQGt8ohIJ2EdTINnil3Pear3COXX2FPYzl81PnsUGq1vGO6mg9ZuPsOXspKhNcYpzDiSoFU6QMQq8exGR4c18afMER9cTqn4LNFaxxPAl4/Dvwjldkgyxt6ha84vQuWIaHmg9XPaUIeE9KM6D7DgRdN9/ld8ygKtw2nj29Ek5fDBVgetIwJNJKFHRphCUPM4o0Pt8hh1SrgI9vzzvwhxaTNg2HqSpWewbUe0I3ATAOykxUnd10ZEhysA2sx410d8usOETABljtDPs5MHd1zNvCzQdjaNkaDV5q3mbsUdQ+e/68xxGaBtNSZ0Q5TFGWn30bEvIlBOU+mID2Wdhwe2OmSZ0EO/b8oFrQ5obp2ddFH0NrH3+V/tCTkDKukJbOcsG99969HGrQCwex7Q8j1smZopwngmyHBFIQpoeR42XmS+iJb2wcM/wGB//6iNlEtOeUGbdJAAbQcStI7Hcih+QxQftGYTbQ4JGRp2uhgKWlpTYmfCBtpOXszmZT0RtFuZH41BUDNwI9q4NSU4bU5dCrCknSzDAVsdtIzIUvdUkyxFLhtb2tF9FImDxT7n/C58BMvLWTpsF3z+8u0azW1+CVLu2xvQ5jnigxiqvBBJQzJjFONHjiikPuITm9t+f1zA4bT5gdbltA0WaO0fF7CBlp5vJGiVLHHZXOc2Seecc+EGd7Bhizk2oaBt5dPzOspKBwgZACKv/rOI7oQ95AuEuGAifBTLyVkqbI87/+ZpDzz11C9AiOeapCn5iA89C5Om5N4tiiiHMvZO0DqiECtoC4pCHKznyqiMKCSRjss4emyIUrub+QsNoGzPtZLMgTd8y3S00co66fvxFZ9wXfIBrfPO48x06Nvrmpx2dnBhq+kkarsY4G0nKTKaxWxkpx3knIveJ/a64OycQ1l49hJhK8VRK6+/GgQc7g1aTb6ogUTGvYwjPvkggpMs1WMb6fx2i3Jl5N7ok45WbtDmiELKAK2qVmWBFjEOim0gxjxRivi5kYpw3FJ/rzhdQuWEFp9BYh92HnNlxNalAszrYMJWBy0DqrqWJll0RXCUlSowIn0iLz7wmfwSYKR5oNj9wnsKGNLCiigNtgtX/WiJgOhjfqDN52H3bOcxoiC4k2UqCw+0rndr4ZvGrLqtDdbQH/Eh+VT8cTECobHEA0HLg4if08YH7dQ+4kNZ4MGCrQ5Z1M1zLwe3i/GMZhFHXJUpB7QWkEv4Aex1/j8LYfloXGEY5RVUCmwXrBx/SUM0fgoAavkd60374OEQKQy0GSUoeimLF4X4gZZvHF0bfTRVx72HNJErWtOo7h+FUBO/04TgIz6ZlriiNYcHXVzk36qIwHHqnZl+a1tE9GyKQV7O65p65zFuYAcHtmVGs9jcpeadrr9WgKrRKz4j0l+FOFLsed5VPBSWn6pw2M4ZGx/dervGowCwjeGpeNx5rIpcsex6/FXSzmPCiOWGSJ+No6N63H5jHnCJnzhzQsS289jUFR9d0obX0LXuD2WA1jBRZYNWq5ArpzJAGzcFUU5kQEw/EFfqVHwMpS/I1lYftpiMLYBT5KID0zOaNQeOnF+KV+9weslzuK2Pzu+1575CjNGHFAoad04xhcP2qFXX/RYAZucBrU+0Rke0WinOAdNvfHRPfLxI28R3g5aO5xhHfIjMlTriYwFI0vy+7Dx2Rf7p2DlBmxkH9+pIP3YeF+SQVP2Ij0PXOAbSN011YUvZM/13BnjbScoGramjrMstdEddRu8S+1z4X77jWEb6QmG74KzrTm9I+I/egDbPER8apPETN2gLj0IG6IhPvijE6k5U/oiPH2hdutSPncf9AK1dDm6HhJiVBEzTYLh3EW3X5lUTtkVGsxhoHYBOBwRhGJHXGRwx8wl4Cp6esbM4+AubywCoT5mFwXbO2Zdss/Xm3f8KIKepKw+h74yU8MDoUxk7j8sDLQ2YuGN+m1hUNcM8wK64XNFaKlYnRDKVhi/35QFt/P6x+Esrqvi5PFxOKVtsEOnBF6EK3XlM9EUz0LjtxfPGcuo9aFvVVg+2mhwIB8V5JjZXNEuNBQeYDpAnps6WTn5I7H3hZ33AWEbawmB71Mq194MQe3mBVrMpXIiUAdoyorX8xjEFcYrPrISLAa1pmzBPuOsWlGUcHQ6JB2jVkmwy6hdoW20iXDvSGHY3LYeC1tQlvpzqIz5c41sd2GJzmAku9fLuTtc5y8aKR97J51mnkpyTF9sIZOR7EiYmdhUHfHkTdxzLSFcIbBeuvO69QsAXewHalskJ23lMA6R/oPXbLcp1RnzO0k5l0Pb0Kz5KpDZIoK2P+PgY3mrANjSaxaIfDmQz+bxhiTuBzki7PSgs0HbTfVDsc+Hnfcay6LSFwPaolddtBgHTk8ZZj/iYkYYPRMJAi0RNihNWbLSW2lVbFOIH2qAoxFG9H2iJyFOBCP8yhqQ0SyQXz6e4gt5+xUfTSEOOmDGzRP6lgzaPLlGGEulPQRuiCFcjozypfE3bjSt1qkYMpS/aimbK6y9ssYCCEx1S9jEUtNQY6L+bLAjaBNUFrzGuSn3r4KeP7ysW9e+rQLlhu3DldWuFgH9K++n3zsgHIsO285g2C4ydx6R/gCkwbl2472lLM44m7bWGDtMRH9Vl8INIWU7boIEWd/iqAtpW6/oHW8wBDABtkqUiN0FhAHU5vxR8ZfNfxD5f+lqJvpa16Fywnb/qyh1HxaxHQHYvr/Db6DOVQUvEifr5I0RtaJgOyhGfNNCzQaT/X/HhOiPxWJLeT2cC9umIDx2Eo7qWdZpJu2v9Li0VJXEj/266jN1SVgZUe8bTpd6Z1/7AVh9kz8iyK552trKj2Y5+mN6m6Wjrw4ZueiOi5Wze1Bv7udjnv17aO21QawqHrZRi4aof/VYIeVAyPTwureCDtj7ikzWApNOGbmrA1So3RBDjh88dfNLHut8P0GagiFav/si/rpJwnRBaceXEitZcr2sGAbSK6OIG44FLqC711rT2FrZlR7PYaGTqtDhB1uVgb9B6vJt1AXqy+VJxwJd/3lutiGsLhu1rPvvjZzaj5q+SRgdfC5cZUGQ+lbHzmJjSPXhn5Bf5a6YfcflTl9Sq99kgAbdkBs/jUUEGpHTQ+h3x8XHa7JF/xUDLdEgsCFLsXZAu1Ud8vG1y72BbJGhbZTEixG4aKywpJ1oHJpaO+M1lszAXLfVW1TGU8qti3/9+m/fAFpAhCLZjY2ONG7c79I8CYJ+4n46ztJqDxJ34ZYC2DIiwopBBOEur+D3EpNFgW3gUUh/xYX+/lzJr2C7NNG3nv9DM9RGfvDa1fNhiDrAHuLIdbK+MeOa1evWWsqyAplaGPBwAo19GiNv94WnYavMeYqevP5F3rH3zB8H2VZ+77mDZhN+UCdrwIz7IwGXGLChaS4o0lSnVPdr0seSEOapZj81lHB3Vm4ESNmmzwTP9PPyMKDGpkgCdf2mFT0RbH/FJBJwdYMNWJHMDtcEZXBurevl1ydAMKjLJfiSpOh90SWRZLmwxI+EJS8WWecAsBJasozlE+3EvXtPZQMdDwkfEvv+90heWedP7w3ZsrHHUdofeCQDP6r5343rYajq7h13YEZ+KRGtcGfEhwr8dalBA22onecRHs8Y+ukQ741oprgmuqKzLGYmf40Xi2hDzpR9Om/bKoD7iE2xXy4OtDlpKTxwAbT8uchOUpR0hgM6/CSozdqQjcqvY50svDB7kwIzesJ1/1i1Ald0AACAASURBVPV7jEq5rswrBss54kMohWaJB844Omwzbr/1iesX0XpHIU6I1Ed8YtC6I3+r0xbokFTvKz64HFgyCjSERWUrHrbYXCUhQkd+ifA4eTNpaE/VvgTtDdrATVDknLH2s1XZ/xP7fPmXRY07pxxv2C5cdd3FAuQidIUgqTH8nGjynha1KumPzh21SkRLGDFEkUwdyReF0OazUy6m19mYCKl+UI74pPyweQT1ER8WRKz7IjqSDtAlJab1imgRzVbqRxW3YyEy81i3UoTxTKcqw7vkWL6S0hQL27JBawGSFZbUGFRkE5Rrs1esY2eLfb/8vpLUAC3WC7avPWv8GRNSPFoWaFsQIR0VTYDFHcsgJj7dkEwb3RCxoDpot2gZoI3NZoBxtHq9nLt80811pJyCAFLWER9ivJOf+/EVn4qAVnFuXXKKnxupnHOu2qBt9akY2GJz0QJGxbTrgG797ZnXOq9DAU0FPHp5jLaSeuLIm+2XlPeI/b5yYGVhu2DFdW9pCPk1WuVtEa0RamoqYnsHqdbojGo7yYkpXR/x0fQ+CLRp2IrqazwfHMaxE61xQKs2mSRwx4jbntt0CTNycffcuhQIWqecenRcDCdf3HevDVFTF7TFwFaHJQEpF0ATIHnATEnKgF53Zlh0Jzt7VEMRuGxMzhcOaLU0DXip2Lt3Z27Zke2csfHRrbcTD0oJO+HegEI4xHM1n3fLSSJa2t1NquSCNi6KNp5Zbw/XMTNv6lDZINIj42hxyZwyUvyesowjZSQ6DR8q0LZkSOA4VRpjxNwOiZ8uoQ4JOryaY1sYaIkxT8pPKzLnHK6HbhlZJkIfHuWLbIsEbegmKGwMKXs3UMvGpjYIeaHY5yvv7pWasGE7f9X47BEpfks3TBW8Ojw0aOsjPqnLgXgoXTKpboON9UZASTscBB6MyB+3xTbjWBZoFS8BUcV+rY4MEmi1JXZHVBI5nqv3HIQ6tzl0qVeWkllPOGxhtVIFa1cuMs8KPztrgS8epWS6gemD/hs29px8lI3J5EWcvLRx7Ye/F/t+ZTZzaHMnY8N2wcrx5QLER/Aaywet+Z7YBhGCRprwy4IIR0b8KESL0HsMWkOlLQocRyFu0LZSDPQRH6WfZYCWcVEMFgQlikc7t+E7jzHDHlfIddpwXRoe0Lb6lxu25PxxQCnJ5wGzEFhW9eysHqlw5SjhuWK/r7SOspb+jwXbOV8an7nVX8WTADBqtih057Htu7TmxC56Q9Twg7YE42iBacpgmzcwTEd8Wv1M+2raLRtE3B4TncIEqZq2t6CNVYJ2fMt7XVO6bQyqIBdsyT0ODoD2JJrtTP4QQLOidEqHPJyH7ohxQRvr7Sqx71dPChpsz0ws2C5cdd3zQMrb+wJar80ZRFSVkkD3fzKueQ4P23UhvNYsrnG033ykjobzPa1igwOMowW06aNQ0JoTmS8j/s5jroxIgCjj2I+v+OSRk+0qRlXa3KXjYNDmdto8rVwPkwfB9qGT5oKU6jIybqnUncVkNIvZwcwYa/ZQsySItDAHDpvrCBiNZJx81OZKR16yX5Z8Em4T+331Bb1QERZsj1o+fqZsiI8ag6L1If2T9q67E5R0PqxHfBAlygsRuiFpSxhfqLGgOuiITxmgLcM4+oC2JSNSTpgtyBocguPKFYPGjNGQrfxJOxz5PpeHO3ypmlkcEqvTVhBojUEwZYQ6OlnZJnOOHJRO6vg5bm8tM8YyJ3thFPPUMaMJ02+5YPGETxly3YfmQUNcxYZeItQKb4JiRbOUPecAGYMPJ1+mzjj5BMzauKPY9dKnfMYsJK0Tti867vxpuz3zmY8DwKy0AhOm6ARF7Vm/NrHErTftLW384jlvMY6d9xfWEoIgwr+KsdhoLW0sV05uGfmdpTWnn6lrXT2cOl/xMUGryomWkeG04eSL58YgrCKFWLke5tn57vXT1q4dm/SpUq770JHQEFcgFkpxWpIy2cvGmPEJAhLeDtyVQmwms84QQCdFc+og5CHlu8X+X7vQZ8xC0jpha+5CrhZoY6ODUt1QEBMgiGeVzcU8J4oLPnzTGN5OohZX4mS4CJcAUVY/0NIy7FrwVnl47fnOZafGR5eN5voxZeTWJWLpOBEB2ctCnbYatCGmrid55B27rR+FsTF8/x/RBLn+xKNANH7ovHwi9myR2WQBjUv3qfO6FqfM6hQ48xH2Ihi0HMhm6sTkIeAqse//HFm2hjhhu3DFNf8CYuSraUPCIVLYxwUUByUAtLmNY57doswoxMGw9mPXRFKqCpBTMrlNNUwfERDvNLAM0NqX2G2gRYTqkpGiK3Fi3J6EgjYdSH+HxKZL/CM+7TFyGUmXnJL8aUGmelpkZCp02bavjPLvu+Pcxfv6FizXnfhaaIjvqvk0WbX/DF025gKpo90uu4IGN5w6KBuk/84oi7RNlrIQHe3I/AGx3//s7TtuvundsF259loAODTxZjJ90cwa7fBAWTuPCUOvCdXfODpI5/p+LzZPsmaaaHb4e1pKifMey8DlkOo52ZHEetdHfCwyygDGiqGAOTdQR3yGA7QtBF1x57mLF/oaYfngh98IIL+pBDTdP5LJxgBQFoI0WOzXN3qDNvAmKDYsNRtE9ssiH06fJib3FbO/eZ/v2Pmkt8L2NUu/t+3k6Padj+zWR3xiXsYjRxrHnoM2IFpDFJbrkKRZbRDxO+Kj9qBTLlq86112mokbqaV1Uw5L63dizEmDkT1ubHdI6KemHNS0tJzKAG0sJ0pG6AhqzreZl6dLPuasv2mbEk67+7zFn/ZthVz/gZNBjIwZ0UpbQKHRLGalKG0LvAkqZOnX6ljp7cOMqQWqiuD1+WHpe9ymT4r9v36G79j5pLfC9sjla/620Rj9v7bpCIQI9ys+5hjQE5vEnQsieY2jdUNUuHEMj2h7C9qkNsamMfqlVehriOE74kM7bZ0nmSnABa2iS/VXfHxsYe60Usg333nO8Rf5FiTXn/htEPB6lRWpk6eWZwESYv/SvBZIKY+YMDNsACMfaX8decl+heZDZ95PxX5fe7nv2Pmkt8J24crxtwPAl3oP2hIg4gKt1eNKjR/uH1ULtMFRSEpTVIdiEVIeYieLzLwyMEopALToPNFQ5DIeyXARfUl+Lu8sbemgNWy1KSMU4NkxY8uJcH9dc87y3MeIVSWtFHDYnecsHvdtj3zwg78FEPG1gYlMLFBNKjDtjnOTVVoJtfkg03wCZsbPZYOWUT7ZL44c24JfL/b7+p6+Y+eT3grbBavWfl9I+Wr0VYB10FqLH5lOOgaHu+RHTOmM0qQVmfbWislCd4uiRgyt3rUsmvFLXQquiBupLPmJkFGPQWvCBjMccf+rd8Snd7qkyomWkT2i1Uqpj/j42Eh22smGeOavzj7uN+wMXf/0oRMfAwnbxyYzdNm4SCARriBr2RizPZ5tU6rn5MVYw8mXqaiVXE7bQxzw5Qd9x4+bnoTt0SffMf2p7f68SUhI0nAhUgZoDaPb7aELIshzMytuPFMHkrzmIHZFSb+CaRwJ3c4OIn/nMdEXTQ44uy0QaT+yyMkjovUBbfjOY9rhiJ/YHBL/z+WlvopNl8r6ik9GSuj6fcbBKgG0hjQtuhI/csw3rvWqWLpITG571znv9bocQd5z4jNgJjyKH+nB9DQnWPCJr0lSTzQkm6AMfdH7Jf5N7P+1FWWpFQnbuZ+77uBpE1HipXFB21Kanh3xQTwgLkRS9hQH2qAopFDQuiBCYMblkDBAS/nk9vf9mmeJTAa6aZpGuoyI4vfYHJLWM5ucbA5JtUHbHqO8ckIGRCnSCVqGwpdl7Uou945HdhiFSxc1faqRD3zgH6EBPzLzYLqkKHEnCwJGDCq4R+SAbOC1iaRDZelTtyWk/nDkwSg/62jriivlz8QBF73MZ/x80pKwXbD8mlcL0fi+OTWwAU8lVRhoFTtsM45pQi5okxwMiNDmM3zTmH1ZVB0+fkTLAy0958yepuJxQ6S3R3w0tyYvQBSFKAO0jHPZ2sBorkSsFMgwlLHzmJBA/tc1rvnmY7mqllbC+Xect/h432bJh058PUTRt7VZT0MQcXbSxARsXPODVC4PkOeBpaLbnnWGyIM2gveL/b+xj+8YctOTsD1y5XVfbMjovZpZIye9PaL1NI4KaHkQ8QetDSDlHfEJBy0iB8XvQS1xRw/SZ1w5pTo8HKCNpWdz2lrPQkFL6GhigGyvITp5M03rJ2hJOSFGTWmnxejxnDauyapmukkZHfmr896j3W/sbqtc/8FTAGTnuBABSxoOmQoISDlBWyCgUWeKsh+6wlv6rohRMXqGfbMAynjlh3ivETw1MUs899It7pHzT0HCduGKa/8CIHY0zDQhO+4RH/x1jVZoXoigg54ZBuc7I9u7NXOwg4wjj/X0ZMoro2QC4w2JRRgK2nCAKMYerT6jkS5Dosxnoi+JrhianlUYdGaxIGK9ACWPnHr4FR/F2MdywkVvyjj5xTnn/I1XlXI0GyP73332u+71bZNc/4G7AeBZ1l3EqRCR4guEJTnn9TqQOlmbpzTN8eqXDmfKwbVAW3lEpGuKY8VB3/i67zhy0qOwPez0a/aaObNxv2F+CHtVxoYoYkr3YCnLbxNLP0EbHIXkBm0M4lxnaYm5Us7OYxtoWw0Z4CM+jrO0fh8XcMnJD7SpmtmcNo6Zqn6aoK/9yLFRePCvGwGk9p3wnGBxQgWbfEVugqLGm9OvnLBUVKVTFu4Z4oGMgMvFfhcdVYbGobA9cvn4HCEgc16ManQ5R3yCIZKGGoasWFHIkH7FhxuFsI2jB2jVaY1NtnSoygEtSfVOxf47j8vQJVROqM2yRbRaKSXsPC5cl8qwaj0uU0pxzp3nHdd+5ebzTz743sNBNtaoeTBby4gsu2sNTtAWFJW2Vc0CRgx63d9IO80BrUedTsiituH3Yv+L4jPPBf9DYbtg5fhHQMLyuC4atD3deZwILpUgrlfmYPCMI2MTC8kKu4yQppPDyN8QRXiPWmX+xpGAUzJR+BGtD2gH5YgPT5f8Vkf4oK2P+BRs/wopLpLRC+867z23+hYm171/MQg4T7GzijKUDpawz+GxYam1nzSEjn5aDSiRNwi0USt6fEocePG2vmPJSY9HtivGrxYAR/QMtArTi4VIOk5EuRmI0ClCdx7zL60wHUXMA81OS/p5mRt9Wi0gdx5Tc8t6wUk8+PR8UgvNfQFKomutcuOy/R2SfuiStsGroKsYCQn04HUNxzwNRpoZTdj6lgsWP+3bWrn+fbcAiBfidpYDWszJ5+TraH0IkFDQMupkA5oK8PQ6LHUqjxhta1eZmVBNeJ6YffEdvuPpSm/A9uhL7pj+1J/+/FTrOg3cEsXCoI/4aH46Z0ATnSkWtKld7bNxdFRvghZBgDKv3KA1SqBplgGdraF+HxfQEGk476liuhyStKShAK02MFw5hR/xsekKsUMb0RXTfuG6ktpUhtK7rNNgPP/OHecufoNvU+Vf3r8dTMBfQHbe11rmJ7l5imNbC/0cHhNcwV8fypTfM3m07JreL7FEHPDNT/iOqSu9AdvWZRajE834Mgt0vpQFWqJCTei4ftkmvhu0ZFdzfIBhUI748BwSG2hNL5kLEHtE6+m0KfPU5rS1nsXPy9AlWtsUbwmp33yOOiReEW1ZoMVnzBQELUxA81m/PveEX7sMrf5cPvC+N0ID4s/q5QYLpXX672VvgtLqI/tlgbbp1WmiQ/pET+ZMXqzOiDICt4kDLnmB75i60huwXbBq7ashir5PH0nsYIQAcbdCZxSSERBh+gpYynKAtqSv+JQB2lhcNuOZPisWImWBNtOfvLrEBm1LiqE7j/M4bQU5JF6gRSyQl5z8HJLUrrrmnMskDdRzOaMJM265YPGEb6vl+vd9EyS8MetQqWUUCaQ8m5ks7VAajIHWM29up4MKmzCnw9q29eKASwr/KIEJ2xXXngIAn6Zuq6HloTbeCdtO8vJAS8ersY74bWLRepcUYU4y17JoZnrhVETnX39Am24aw01o6L3QmuPgkENxm8ZCQVsRXbLIqT7i44u7/OklNN9957knXOhbkpTvnwHr5aMAMMt6vlaHmctekBESEQ0WAksMsth8cYA3N2gpJ48DWqMPW+DAS2YKYm3Xd7y76Q3YHrly/FoRyUP1AlvGvlqgxQ1gu43p/xByGQDQZrpnv/koTYjPRRKTbjl1LmTggFYdjUwOJHN9xKerlorHqemqNt8KAy3hOGiT21+XKGMXapqqn6+x9axtbl/x1g2+LZXrTngLQONrPNBiOuIAV9Kg0GVjj/I1Veb1STFuGfF5OAVKUk57sXezlBMtAYR8udj/Wz/1HVtbegW2x51/87T7nnjiSQCYoWbq4ccFEKLjcjUFzANtD474uAIhY1UHJVJ7CAYPtNRESmdl7522wLO07a7YIOLntKEOCVF8Mu6t5z0GraG+Fuc1fjT1QAsSLrzjvMXvDjHGct37rgKQ83Qba5YVCEtyTBgwCzk7S09oRHkxR5wDy45WWuZCKj+kn74fuxfiLLH/JR8OGV8qjwLb+avGZzea8rd9A60yy2OBcT3sdLwdE996fV4BR3wKBS1RGCsKwfOyHJKOYvof8akQaJOmpLTi6lKatWTQksObqbeg97TEbCpgXwRD4Yu0WBUp6+kmPOMPFyx+3Lc58oEP7AuN5u9BQubWKAI2eJSRqZKTjxofLS/qUDEgSILWkte7X50M3vlafSc3QWlDZwD6LnHAt57jO7629Cpsl197VAPgh1kPYbCO+Dgmfimgdb1/1FwXl2em6BWisIhy4zpo5mWBtvMuexC+4hOPNgHEpLN+TlthoNVUUW0lZjxiPQk/4oPoft91qUhTVZ2yIim/ftd5xx8b0iL5wAljIMTJ3dE2y8gBlpCotK02DKh2tDNpLwlZB9xD8rlspt627t+sfmE2tv3bw+LAb+0WMsZUHhW2y67994aApV1F4ILWHC8aEoTpMzxsXL64YWVBpCN4sgTtAdc4uo+vZFwXl9LkNY4pKYzxTnWcgFOioNSlFZ3CM9mLk1FaEndjXf9A63oNUZCcCopoSTnlddpII12keapmWcGXWMijR2D9rusBYJfws7OUc6n/zgBoajg1QTvKIoHpqDM3aCnbhbTXd9nYtJ2bxIHfmlWkBiqwXbB8/CIAeUx3gpJjoUUT/N2ihNfDmvgW0Donfjlf8SkDtMHG0QLa9FFxoFVHUvESENDbnmvIVv5E2st2SEraeWx12gYEtMrgxQLF/UDLnJuK72njlYfT7zz3+E+FGGH5wPveCUJeyAOtD1j01oSClpsP0xhLXtecNrQPsxeMtrXLCXzPjenziDxI7PftP4SMNZZHh+2fAOQ+1dt5TEMidgjcELGWkHmomf5YZmjmqXvExxQJDdPq7Ty2AYQc7M7c8dsQFaxLOPkSVeQ7t4TWa86tP2hdcirKPFWunM13nLt4Zmir5LoTWlcAau8BQ8ESuPxL2ksGzGJji3SfA1qPfBb9TyvXE3F3GyPtoJabZXSSOOi7q0LHW8+XwHbOWePPmDUpHy0DtMHRmmYUUP+tL6B1XciQUQmO4iTzjWccDZUnJ0H3dI/NGfE7S9tv0Lp1KXDnsUWGiceFOc3JUBewua7jmKt6no5d+7EylJjhyPqH9POu0axByzalEoT4xzvOOS7oOIhcd/wbABrfMsaWYx9YVy4yYMaGpVYWaYcddVrtN5E3SB6Bm6BQeSgNuF4c+O1/YmuII2EC27nLxp8/KqJbue9pc79bQwYCtyM4KGI58SCCyyDUOObZEJXfOPqD1hGFBJ+lzZSLDkPx57JLA20VdMkbtMi4Jk4bMeasOWeZbxw5FWWZKleO+Mkd5x73j6HNkutO+AUAdK4AVAaqUyQDlu2UBS6TcqJUNqApe6D3y9JPlyOJLTfn2wSlDafRtgfFgd/eI3TM9XwJbOcvv3YRgLy4O55mBWlDnKBV5E4AUZv4uENTgzYbp+CgxQ1rOkcsDonriI9WtFoSZjC6WlMgaNm6lNJqIHWpoA1Rcd9ppy77zLRttK6wnNuirFL1ynk6emSHHe66dNGWkKbJB44/BkTjomQu4wrqMvzMXcPY2HuAPJ3CHk5ApnzEoUs7RrQjSB7YsjGjn17OAzwhDvz29iFjjuXJwvZTAPJU6v1kNjN/Kass0BIGJVEU8kAI6hlm3AidbcYEsOpSJrXTIVFYFWocLaBtP7KA1vOIj1pTKGi1UjiTjCWnPoI20CEp44hP3JRidSnpnmsVqSiLVL1yoigamXfX+e+6JqRpUo41YP3DdwPAIWZUSs1P/ffQaBazD0UDCbMFjDq6emp6fA6nozPXObZDnwusKDjjbUiYhAO/M10I6nyhn0YksD1y2bVfkyDfYmZXe8UHLc/DxmWGK2HqlFggMlRHfFIZ+sspFLSdOrXsPIfEtWksUwpnslQAtLRbZ3sNkcmFDkNGTgVFtMGgTWmKWo54ztl0yc/gDFxqIb9+xzlhZ2rbolv/3o+CjM5s99sbLPUmKFVfStgEZShkZpDaXJfPE7O/W8i3bdPIdtk1vwSA5xqdy/zQm2jNAlrnxB+mIz6DBlrXprEyQNuSUUlHfEr6IpQSe+YFrcJ0AojJz/F/+DtttLsxcOD0b/Add5y7+Hn+2eIc7W/Wbpq8FwCeYbOrxHEHxMlhRIxpRKI1W89LedOOdLoWafpl72dHl5xOB6ZzpW2CyhIu/e+uHCX8u5j93eWhOpDN14btnLHx0RlbR5tAwohWW/JnP0GbiJ6xLEr74KFfqHFFaxmJuaI1xWlCWoooob9xdEQhrg1Rmp6rpSmhpqJ/9RGfrjhoGRnnsi36EjvVWRHT+tK3+7OLsEDVLeOvj83csPf9Z314Y2gT5QPHfwNAvImyqR0kI8WHLhszYFwELA0WegDapdO93wRluqCKwyLXiIP+d26oDhiwPeLMH+070tjS8sBQynNBG4+BDSKZ6AatCgdF3HcbRMo6/+iK1jxAm1FQrnHEddomIyOHNqRxzZYSlIf9BK1bl8o64uO6ISp0F7vHV3y8QEuMuRZx+DttDl0qwvpUt4yNjdHGIbd/4d33hzZRrnvPi0DCjQDQsEJVr4D1XhGzsWWDVokUOq32qNMViOhOQPfv/DdBoUxDHSBtznTSPCIO+u4uoXpgwHbusmtf3gD5Y6wBpYM2mdOhoPUzjlyAGMbeHTDaBzUJeIiCkIE2ncDqgdZ+i5YmbdeEU+azzWkLBK3TafPTJRVHyQCj85L9FR/Ur9RkoVQV6txaXa4p/J5WbIFIvOqO8999daiBleNjo3Dwg78CIQ7yugTCNT8wIMWRiNZUBgTRfJSDhek2o47gTVCtdoQuG3PahfSTkoeUT4rZ/7tdqC4YsJ2/7Nq3AsivYB5Y5ZeyKvdxAdr4xU9CjSOeN9URizcwVEd8OhMx6P2j22OiU4RviCpj53E+XbL2cgqDFiYjKd5+13nHfT2PcZUPvOe/AeAdbNCyolkMEAFgQZx6NMpLftRB61FniPPQ3ivBqQOzo5x8mhzd8tgsDvrf4FvDENiu+TSAOEVXDj5oeRDBZW/xsEnvq9OFkkBbxp3HbuOYypArp1RPbBCJIcH9ig8/WnO9y07b5FwdyVTqllPcE66MkrSuHbUl7WIvA7Rxn4p12thyykOhauedlFKccOd5x/1nnmbKde99IcjoJgDZWT7ulkbM0VKXSbU6SXvqgJQbSGZkrRRJ2Sf999BoFrMIDPBy5CEggq/+7zQxRphQD2Vpb5Cav3TNf4KAd2XzDQJoCcQ7ztIalt1QFKtuZVI7IaI4hTbj6A9annG0gbZTAjYfszijbAS6RGQaFqeMqgDaQdh5nBmHGrQeFo6TVMAkSPmOO849/muc5FQaecfR02GHnR4AgJ3VNIThxz1GE1y0Ye48KQGWhnHV67DU6QQtUlYvo9nUeCJDifQril4oDv7+rXl0o5W3Ddsjl19zlZRyXmIqXUrAhkgmulEUxorJOGXwhiilcVlsqIqJQsQVraWdcEKEbRzLBW2rGTgvQzf6uDaNqbUV57QN7xGf9hi5DFSi1qT3o+g3PoVJTeheop3Xngxi/smoMXLkXWeHXVqhmLX7F/8MhHiJHbTUBdsMmLGApNlWMnrDbLBitHggTzrL2UFNOR2MvhsXVFAMcZSVPPaoM2qcJA7O/0GCGLbLrvm9BHkgzjitUSWCNnU4CIPSRafHhfCa6e+AHLcJyiYWi9koA7SG6lgmSfzIJqN0o48/aDMtQTLXR3wSl9SiS/XO40GgrgTY3JTRs3513nv+mLe98v7FnwUhPphxx80iQ2CZGkWtPAJcCv25QKLmPKOOQdkERULWIaNWPiG/JQ76/tF5dSReRl62ZhIARoqDSDpIuMNu87B5EKFwmXWAygCtyTmUSB23gBeF+IOWUpCuMyotLxgK2uiDh06pn4sPPGqL7MuigTuPrR59Kida2wo6l22RU+sRP6IlxlwzInh1tvnm0KW8Fqai+SWI320e3fTc333hA5vzNlHev/ilIOAnAKJzSRASNaFDwIBZCKBJsFDa3vk9BEgOO0BuEmP1C7OtDJl1rG9qjGw6joyV5k+DlA+Ig7+/d149EQs+c/ku0ej0h4cNtKp4dWVSxWaP1rS0TIjEyWgQh1wIn/LD4pDIckDb0yM+iuj8NkSl9qI4py1Il9ok1adn+oMJWkRfFLUtQZdMzzGvPRmI/FLC/9z5lx3eAZcuauZtsLz51VvBHnv9FQBm0GCh9QD1PhNV4IBFS5MaCa1SR1m5Qctpa6tJFdwEpVLZvFZTwAZx0Pe3yasr4vAVa549GsGdfA+bMGLaYOF2Bs/LhQhtPgt4/8hw8PkyygNaPC9XRh11RvTCdDhUedockgK/4pOp1H25hx9oUxtlA63fBShBoEUHQW1TZAFx1k8rw2njaZW8aAAAIABJREFUySmvaalkfimlWHDnecetJrcyeDZb3n/8YyBge9yx5gJIB2ZAvhBYGqZGr9fSDuURp72VO9KDOyO4HDeJ2d+f5akaRnJxxJKr5zQaYpz0sDIDwp34gwLa/hzxSaXDlVM6/m6IVPqIjwJal0NSgzaWEDLmiEHAbZ/NubXpUl6zUsH8Ul4/IxKvueWCxY8X1Tp5//EPgJB7muVxNgtR+s8Bl5Y39cQrGs2W/Tk83VmhIieHbGmHZULM/v70vHoj5i1b80aQ8M24IHpi9xO0lOiS9hpGvCuWzgPUrhS/85grI7Q/5ITpbhQNBW2nNkwfzRDK0Cf7prGM44B7DqgPZ5dT6ynhkOSSUfqC1IKgoOsqFSTm/biAoss1aPMaOAA5KSN49Z1/3fHqIpaNE8ty//G/BSFnmxMmAJaJQdDzMsoKAS3umWW6QrTDO19rzmHuP6dfjDQ6s2hYEgsZGB+QvgtoioN+MJpXF8W8pWs+AACfQ2GrtCV04ltN2xQ64kMAhJxomRFh7DzGI9qCQEt7B4n+FbfEXtIRH+ulFaacVK1lOm0O0LaagJabncVJVYRzpRkU3MexzDmLw5LXmFQtvwR5+sjWW515+4q3biiybXLde+4AGT1HLZMbzSKTibVZSMtHgoXQG2PXsAfMcCWzwLk7nzh1YFzh5MPk4eh7aq2QIMBR56aZM8RzL92SR4/E3DPXnCIEfNqIaksEbcoXSjip8aNTFLRb1CK90jeNFQTaloxI86o94EJkqI749AK06CCoDlZxDklcbg1acvJ+qdmE/7j7gsXr8xhHPW/8Ifj1/wcS+RSpE0gYZNFRdN91TDpMDmCQgLa0QymSCcHgaBZrB6POEHn49itqvkAccvltefRJzFu6+nMAohXdIrTv4zsjj6sYuQCJh1LxIqyy4xtHwiVAlNscYxKT7osGXJ/LCwRt+M5jzEvNqpXteUlHfIYUtIZZIg1OVo1szm0eM1KNvELAFyfFxIq7z36f9gWz/O2TNx83DXaD26Ahnq3aSl2mlIz1yciAiO5SecEyU74VLJZ2+AKpMvcaO8bAS46dmRaJN4tDfnBRHk1qwfbLAOJteIRtN55d3xp36mwQcUx6D9CqRscO0uod8cE9ytRuWuTUgQi5IarnoKU891iz7DuPW42NG8zVpXS+2HSprJ3H/EsrWn3q585jnpzymJD+5pUgnwApPyIb0Q/uOue9D5bRGnnfh2aB2HA7CJF5R8tdNsZsaChoQ/NxI+hOOm/IdvNxHA/MMHH6FZpP67sXaDM8Ec0zxOwrPplHv1rLyN8RQr5Oh637WIafcUy6nJIEb3cNWndE27nLl7vzWFVTm0Pi2jSWlpR7iV1RiFBd6gdotdUR3DtIdLufoE1F7HBu81iQvuUV50UN+eVd71x/y9q1Y61LeUr5J//wrt1gxugvADK7jkPesaoGMNNWBmhIm2nJ6w1MzC4w2tbu1xBsgjK0R5OHlN8Rh1z2hjxK1togtRpAxl+iV8rHPLJuVaHGkfKwOuVal/zCz9LWR3zUccNf8JYFWmLMEwMSqksOgJSkS/VXfPKYmxx5JTwQQfSVRmPksqeenvaLP375HZtylMbKKv+0+JUwApcDwNZxhn5Es9j8KRKy3H4RdRqOBxfQzHTGlYCh+Sj2UP3KqkgrjbxNHHz5C1iKQyRqwfYGAPn3vqA1mm6JWNNHoZGI6XUVF62lkuFGawQeMmugmQhQF7xTTm4ZlbrzGK0+0x/jufZD5k+7nNoKnEhHKSWXjMo74tNT0CoTrCSHJI/lKDfvBhDip1JG14Ns3CQaE3fdcc577yu3SrV0ue64T4AUpwFA51N5gaAldVmfSNg88gSLOYk0kXHBghotTUDq/E2cEWOQOP1i9JMtx8zE8ZaHyZmMjXpcHHzZM/LooJi39Oq7QMLfpE1EOp78FGgc24W7IUKnqHcex451bO5xOYVH/lXdeSxBRgJEa0fpQxLgEZDwlASxsSHlhF3pI/vHJzPeiirLzgObqpIVp5ki40Y6xD2iPSbUQLaSK1mS6tgF5bETheUVraERcrMEuRGk2NCA6OEIRh4BgEdBRg+OCLn+9vPe83BhFXoWJP/8r9vC5tGLQIijUk/QAcZ4cpo1hSw3I7Y2Ew7Q8LSCxQKzECD1PJrF5EtNUh2YDJB3x89IqvwwIQ6+LNfFFmL+0qv/KCXsF3enWNAmIuoLaPk7j7kRLSkjRRcCHRLGWdow0FKeXtcXzYy5XdkKvDQ/s/NYgpRC/qohxc1SwC2iKX8PIO8TzZEH9103+silBdxf62lv6+RTVAJy3eK/AwmXAMABSaTmmBNJOl1mwaD1gIPBII+83pDtVBYC2nZdnLZpadj5tPJDHBa3PCZh9uXThSBiHcacEfPOvPohANg1HLSUIPk3H9GBRGhEywdtu/UuQSfOEtFSZHDNIvG8qT7RUgiPaO2g7dMRn00AYm0km9cK2bihsUXedsMXjn2Coat1kloCpUhAyuOmwQONMWjIj4KEkTjQCYBDGl3QEWjypACwuOyWwQU96uNCENsERdkrvV8cOeaBJWXj9Hot7eDJsQmzL5+WF7ZPSJDbolqsQQR38mwQsQCko9Bc0KrDgSlN2oPqHfHJB9pWzwb6iI+U90IkvyNAXDH55JM/ueWCxU+XYjXrQmsJeEpA3v/u54No/DcAdDa/BL6bZQOaC5bccDCBjxvwTDqizpBoNpc8egRoHmS78skP2yPOvPppAdL8okFu0NIRb9dzrBZokfYqTEday4pocTmkWW0OSTzxK33ER3Ess32RDwmQF0eicfFNs379cxgbG6yXi55Gu04+WBKQf3n/drBx81jng+/1JijynbNHhNhVgXaWovI5om8/YOpHbjotZsE9gtmXj+aKbI84c/UWATBNmSoDCtqeHvFRdCAWGDfyzw/aTm1ahemftsi/wCM+Cmi7rqxcHTXFhfLJJ753ywWLHRuZBstA160dfAlICQIeePexIBpLAGCvpEesZWPKIR82sHA/h4fJgwUu1VoiQUuqaaERfmg+Au5SRvCNK6aJMfveS9sMEUecuToSACJVOsU9MSFiEUzq0FiiNdf5R62vakl5IJIZPpyK6PiWd7lHaESbB7Sud9kZXLtkpEa0myTI/xHR6JIbVyy6Z/BNct2DYZSAfODdRwA0lgLAC5XJztH10ncbOyAVAiRnv4g662XjjPonrxUiOPgfpgkRvkKnwhYZ0DKiNRozoRuiXNHaIIF2oI74PC2lPH9kcuQ/fnbWoo3DaKDrPg2+BOS6xa+ESJwKQv6T2pvA97NpVKEJxxHhsvNREYdH1KgkZeYLvgkKiwYZdYbIw7tfWIDGaFs3zOwmFSKC2X+fD7Zzz7yqCSAaqeOWiW70eUYKZzB2HjuP+KjRGm5lXA5JLhkxQBsY+YefpUUmUtQ+53rBDVvvfiKMHVraVXmDb+brHvRLAlIePQL37zgXRmAMJPyD0Q5W9Ibofshys1dUmgGBFSwWYIQAidUvpE5WPq7zQIVhOjADYJkogMMh6qYz+hVJOPilo3kj2wkhofNh3LJAm0KEJBilY46v9JSz85gY9NygxTzA7IqF7dIKc/lYbSXmwSWag/lSnYdaKUbXlR+aEuT3m48+cWy9o7hfGKnrtUlA/vG4PWD6yKtBypOV+4yzxtau4+i8iAMdDyOfTj3mGVMukCgbokfpzLa2+8QBkJaGDCocZbHz5ZEHZguZ8jCu5Ezkkx+2c5esbi3/zYx1I24Qros4gGLZUR5JV2/JN5/ofaNciJQDWkKZWaDF86b6ZZGT9XaoCoBWwu1CTrzj58v/5Re1ua8lUCUJyPuOngWjO/89NKP3gBBHx1csInMtBJbJlO4RkJRqOIAIBUu9CUrVYeqVQsbw541s5y5Z/RgAbB8OWl60hk9O2xWDmXJRRoW+p8UmodXVcN95jIDYdGxtDontiE9ZoFXHzbLE/rSQctnPl73plCoZ2LotU1sC8t737ACjzeeAaLwZpHwngMhcpYeAsefRLGYXLfD0hqxpF7JWLNUOok7WMnpBDktPollMHhxnhQoW9ZOKUsLBL8u3jDx3ydUPAkS70RFtvmiNRnE/QIu0RnEMCSBqMOVG/mm24kCrIRKfX+1fXc5I2iYLaG+enIwW3LLyza27a+t/tQT6JoH2udgNE/vCqHg+SHkcgHgFe/kzBLRsQGiFs/NRwQQTEOhypz48GCxDP4fn6TyY0YbWuCIdj9DoHgNtqyy0bUXA9qp7AWBfQ5SuaK2dwQ0RPIUpHDUdJrx09CxNUwbUuSEqU2l9xCfrC8vN0JArb1zypv/om3WtK56SEpDrjtsKtsD2MEPsAHJkb5DNuQBiIYB4tjNaM1ijWx8myEKWm61GydIO5ZFHe635CDD2PJrlAhpzPJhjxfrsIVGW8bPVESkAtmdedQdIeE4Z0RqN4vqITxx8hn7Fh/KKu4Gu4kVYPUrEIXlITsD8G1cd83/9tPbt+2rv33pbGGlsC9PkDIgaM0GI7UFOzoLm6LbQkDP62b7hqbupdcVx0Zf3PWB6+QDQbDZgpDETJOwAIHcFEHuDkLMB4BAA2E6BqjMq5RpSpvEOBi2zfHTDp0deb8h2gyIPkHtHpVrZ7T89+qTUx82LBWTMOtExdkb8BcB2yVU/l6BtjSeFNSRHfAIiWjzyx92JWHy0q8ECrVahWhqmaHlB2/r8jvzRjUuP+ScQwtH4YlEj7/vQLGiInWG6PBCixj+DFK8F0f3ySrF1Td3SdINIDbHDKLcfOw1TR8y6nnLr7Ch/MFiMENfqcMbzkRuFhYKFcoA5gMgDFuPdIzEFOPrhaGvy2BPs1nG21OmtH85NUKreZiUlpYRDXp7vne0RS666GgCOSMrNBdo8R3zyRGuq/gz2V3xMQ8MFbY6v+EQS5Pk3Ln3TCb2AUfsM5JP77gCb5cugKT4JQry4F/VOzTpC4UB5exzQYmDhQIWyAZy8gRdUkI5xCWDxhgPmdHg4BT1fNuaME6VXHnlD5BgWzaZOWOtSi4Nflu9SiyM+s/rbIOTrae+uGzHxozXcqDE+bo7pkf6dXUfMxQctWZnh3eBjazYk9VMsjew0kF6NK2OJXcO1+udkBPIDNy095twyYdS+k/axE7eHLY03AjQ+AwA7lllfXTai36QjzQELB7JcWFLzI/CsKOu9XR55FOCwkFFfV1OJaDAILJ5jpTQhNCrlwBJzwgg7XOjnAbE+MdqrwiSCQ65ufWLP+0VKV7xi7pIrvyRBvB1fRsmClhJKl02hZ2mpAUg1wKmnaRM0G4tNEvKQU/4jPqSXnNFm8is+uBeb9qDzX6idCtt5LAE2Czm64IZlbxgvC07td6+PbPu30IRvghCt93L1v9IlgChJyLvIZMp7Gm/rhLUYuSCweMIh6RPD2LbHCbNPnLyh+bgOC2aPI+qSBLtdJO0WxwnD2lHwGLOcKaJO42emLpvzJYKLrs73IYK5S676nJTwgQxWlYFJnWHKG00jXjxFeETrPr6SNpW78zhuI9EXzUgYqVJhGOYyfmSRUUdhuBGt2sriQQsgNwkJL/z5smPuLsP2Szk2Cg898VYQjfNA/6pUGRXWZXZdTlUSpM5yDSnnnR+mnxwg4Q5mNY70YKD16JNhZjzyBjkdTIjoto+tH1r72fnyOA859CrvsrFOQQFNOHhNvo/HH376laeIhvg0BqCUPW6IkKClnMMs9NDMrmjNH7RxU4YJtGFf8ZESNguYmH3DsmPvL5pR7eXihz/yEQBofV0l/ZpU0RXV5SES0A2ih4HPltbO5mm8NUcVIT7e3iCwcPqFpMkV3XvWaZWHJRoMkoeHQ6SMM6dPlAHX83KdN0vfdcAZRXLam2sTlG1ONeGQnLA9YsnV7wPZ/AJmu2LnJRS0pteqloR5Ld1WDBNoGUd8Ah2SkI8LtJaOJ2R04K3L3rSuaF7J9R9uRbL/CQIyt/kUXUtdnimBAqKORAdbZTGNWjpdO//FyZcz0gkxwCFRmDInPcASAsvgZdJ+LBuXPcYmN3j6yL0JCoE9Tz8m4ZA10/N9PP6MKxeBgIv1Cdw/0LqitbSlzqVjZV7zIlpjKMiByJ4WsDgkrrO0PQQtSDmxuSEPue3MN/2xSGTJ9e/fBcSMO0HALkWWW5fFkQAHtJR+Zn5v/2doNOsRreATTOsoYdCDQMvoe7t2jhyxfmLOQw+AxPocHtIO1J5xo1JOv3SdomRm0ZkQhwXdec1oL3e1Q8pJ8axrpnFmJJVGHLHkijkghbJBxg3aPEd8bBGttsxrYVh7qFyDklRVRdCaHpzaSpucbJG/Vkoqg2gEGs//2dJFv8yjMIZT9tBJ3wAQb4wvf6//9U4CmCFlGBcULK18nnmT5B75QmBpTnReW1GoOGCpPOb0iwsWS1kuG2aMS2A0W7g8iuyTaQvjeaTXQdRp/Mx0GrmgbbVDwCZxyDWz8sxvccRpV/8NjDTv6haSjomFdJ1oDa+YsSGKZB+mvEQtLiVVWIUZJqXH5tBajAlXRq1CuRuiygRt2y8R4ogbz1x0bR5lyeaV6z++CzQmWpurdiqqzLocrgQ0fc5lSDHQFmlIlYmY6WCoIWVAEJUHZc90m8MoP2strHbIUqfLfqFfLWJCxIjSGX1HnTCGc5KMqD7OnnUGyQOrg/H+mq0f2fKj34lnjh/MnaFYOjFnbHzn0emb/5yIlZy4newlgbanO48RkBrDRsghzUopU+qlcUGrqjRlnOJUFh9A8QSzTpsE8ZYbly76Rh5FUUD74EmngRCfqKPZoiTqU44OWk84KD6mp/G2Kh/RDnxiaR1G8rKijtB8CERIu2dxCkLkYVTNHD9j2ZiRj90nrVFkvxx1hsgjSD9K2wSFO4PtNorvi2et+WefmaqnFTA21jhi+ku2SIAR21nb2PGJJYNjZvi/4pM6JP0AretddtombXn95BuWvvE0gPxXMMqbj5sG+2x3IwA8P4/S1XlDJKBDlht1UPkYxjr4jGnqcKo9ZdYZYoBRsFDzNPN7CFiUYjl94soDK6sfy8YefQp1HoK/WkTIyJhSBc8XIZeIZ463Aozgf+2jGYd/5srfAcBB4TuPOx3DdDiLZ1T3XdFa2jfnhiilfmKiaZMLn9ekO8HanV18RBsGWglwbfPAg468ZfHfTQRrSCejXHfSzjAqbgMJe+Utq87vKwGO4WAYyHaS0GgWg7ulzhAgsaJZpB3B+bgOSyYdCWdHWUHy4IwVMgYh8vDqF8dZKUMeel9bf2O/afOrCHk0o2PFc9Z+3XfmZtO3YXvYZ666SshoHl1QHLVSfqL+UE1ngjiDT8eyaLmgxZ2yUNAyjvhgNjPpIi2nkCM+APD45s1P73/bZ9/xWB4Facvozx98JkTTWhFt5osseUut87slUJAhbQ8iZpi4BpEB8q5TjXuvuvUzux5yj2+7Lo+2dWutPFj6Ec32wJkKPuKEwYfjiFDHgRw6g+lVUz5XPGf8TvecpVPEke3pV1wIAt6JJysLtK5oTW3NYO88NkHKdUgCQSujSLzwpuWLbsujHO3p9/BJrwQJawBErm3vedsx9fJzolmGgUwMByMCCP78G+YoekAwBNAoaKlwQI/EPNqGe+QZdbSUpTxi1sk60oOMO3kfgmPcQxwWL2cl09YgeWByK2kTFN0vCbfvNE0suhT5XiTfMsWR7RlXnCwAxtBsJW2IskMkFLSEp4sI0Rx3fKKmukhNZFdE22mTPt+TLmKGKnXBbeOflVJ2rkVSvvemZcecw1cDws1ad9J8GBGX1xuh8krSN78OWqahRt+xMiMAA7QedYbAsj0tOHUgaVj5MCBxI2FssnLaas71eOSZeetNUKoTg+pVCc5DMkTkODXFs8ZHfWexnr4N2zmnX/G2EQFfNgqbMqDFJwQXtK3c3Pe06nAWD1qQ8vYnZzVefNcpi7bkUQ750IfmATSuBBD1lYt5BOmVV4cs11BT+ThGvkiwUA4pYiBDAJ1OSNUo41FC+ivpsVrkY3rjWi2E0Xf2C6uzH8vGHN3I6J9VHpZx95Zj6TdBhVxgskU8a3yG11RGEnc3SL0CpLxeeV4SaN3HVzJzxKW4CqswD7hbVvoML9LMm85PSpFSL5YLWtV0hoJWK0WxlTKakHKfvFcxyodOfDmI0etA/v/tnXm8JUV59586d+6sMIOgCERiNCgz9w64QJxhFIFEY4Rg3AZZxCWJJJqYiGBegwvDuH0Al0STN9H4xrxmMYIG2fHNwiDg3Ds44kRmSARFGWQZtjADM8zce0+9nz7ndJ/u6qeqnqqu7tOnz8MffODcru1XTz3f56mu7oaxogbG5akKUEBrcZAZqGhgkF3kSOIVqpwmUPDOSh3hkFn6jmW1cDYEPzZf1ekPFnRQ+ob5Nko5pU2ncWUcS09NxzaDgDaqxGKTnT879i1TxGrze8TyGxdTV7Luum5m+6nrf2msDfckF9ke8dHNYdqgUEaFP3ncbUYDRMW4qKBNaiS8Fzo8aG33svujULsn2/Jdmy49/ctFjEI+9P4XAbSmAaBwJFekH6NTNqQjxRyTxsnn4lAHZ+UFFixjIbRJdqRKXVWCxUuP6CyM1ckTszCN/yM9umWYAx9YBj0ERQEtYex9sPXdCtmuOkUeE8tvLPzyng5sj/ni98YPeOThPRA9a9sTCx9C71cs6BkAaLtuZBCg7TqOQYK2M/bsYvj5roWt5xfZPpb3vfc5ML7gNgA4ZHRgN8iRYoAgAEj7Hl8H5+3sSPNr3ymb8AES6hAJztXJkVLGFRJIGGSJmRkfgsouVp9dEr8g7Nti+YbfKOopkvtxv/aJ67cCyIkmPuKDr3NDOGHMaG0HovwDEs+Tx93otz33wulLz7rL1yCkXLcQHt71XZDiJb51cDkXBVTQUiCr21LiQ1DZDS6KlljGQCnXmwOf4KHjXB0Coszug0PfrLsWlrqcgFRUD3XNRI1bNPIJpvrblcgitQVT8jyx4qbPuqxu7No+bD9+3T8DwFt0caP/s7S2bVFTsIL0JmGZpqeIoeSDeBNodVFmr591+opPsqjaV01fcob3q8Q636B9+LwvgxS/XdSguLxNARWyxKyGnM1i9YUECyGzjMnnAyTUkRLa1ALC5khzZEpNoMbpW8eFtel7CIow9qTH6jw7AjrvKA1apHQzltPYN5rQUB7poerhu85S/Y2rmDc3KV5wc/L9ANsK1/09ge2rPnbturYQF+IX+r+KkR/xURYzaivuX/Hpz5OEefKppbde8ju7fI1APnTeWQDiH3zLczmqAr4OQFfOkgHE0Mv5O4oTTqJai8PV1GUFEuKEC4GWMibEkaY1wqCl/uYMFt42zq0O0ufwkPkk24dvcImUEzAnlm8o/NhPpEEC21/9+LVnAAjkZfVNAi0eZfXnUBc19cpFu7Vav5rVKVsT5rj6ENYG5YojwF5XKaH92U0Xn3ke1d2r18kd5x4B7bHoW7T8wXdfEUnlVGA6wiExl6icY1mjgQWEZWeZUPqGOVJKOWX9Oo3L1wFTAY35Ft42zi6NQXxAwNGu8sHUbrHipiWkJW65KIHtSeuvOUa0Wt+ziRMOIv2WCr/zGFl0eGCdF75fNBxos8uuPNBGj/ceuHvp4uu/cPJeH2OQN66bBxNPRp/dO96nPJehKKBCFg/46PepKM6jIFjyDgcZqNoPnSPNhXc5F2MdO5ZxakFr0Mc6LmRM6HRprsv001cPnR+yzHvnzxTboAYPhn4460h9dhYLwqjj8l1nmB6Z9fO4mLjpQMpKt13Tv2f7yX87SLb3PZJCYPc/sXWb/gM6J+Ef8el2RWMAysKjgjYZXs0f8en0EzHwwlntg+e9F4T4vM1I+O++ClAcAMFBdi7xPQSFOauQQKJms0g/SFkwVo7qgC2OFIO4+pszWKjbxhhYCLagdcqUsgWDsJzslDZ1j3zZAhZPu/IJwjLjyo3pe2LFTb/i6wHS5TJvB/rVj1/7IIB4dkJYzFcMDLSaBVYqaAknj700UgIHPDroL3vk79GO9nN/0pp/+eWneb2vU/78/YfDWOtu3j4OsYzUOgI50iTKoji1go7UYoO5yDseclNP13qBxfcQlEfw0M8UEAMOHEwFfXaWEDR2uk+xeeU6n3LWYKp9gVhx86dCeIkMbE/6+HXfEABvwj7x0+9T778wLdLZp+bv2jWKnrZML3HMgSW14TGqVvzeVNoe8Ylyae3XjvI6ZHuo18n/EZ+0cckrpy8+4/W+RiAfPO8yEGKtb3kup1MAi74ojkNXjpAB8AcElMnA1l7JOnpn6TpHaelvIbBQ7DHla6xAogSX0TWEOUDHZelv8mfKuFLXUMqJp58vlm/qv/CpgOPLZrafuO5DIOXH9dwLA9okYMcRmQmiuy2WAVpd9NQHeH1BC+3pi0/3fpWifOj9awBatxawGy6KKqACk7L4ddG5Y1mK48j02fOeYn7x9mqlOFLHMWWkoZR1dKRB9OBDUNml4HkIyid4SOyDYhtewcNeseI7C0M5uwxsf+2T171ezskr0pVnh6GHbaMe8TFmtL1Jw9Z1OjBAA9Zij/j050XeM33xGc/3MQK5bl0L3r3rZgCxxqc8l8EUUCGrC+So2QrFeYQEC2qsmnf5quMn9JWcrWCBB6aloc3Mnwh9Q3cFKG1GdXsGLOQ3QekCMYc5MOphmHdnHYscgnKwvxycKHOMgZbU5qNixXeeGcrnZWB74rqrl7fGWnf2czsEu2iSqSVPrp/U79J25UEby0XSuF3ky/bXvE7oPkgH+YhPPnlI91fIfTPyJbd/9vQtPkYgHzj/FGjBNT5luYwvaC0OIfkz4X6WNqCzgJxcThMoBN0mJThIFNCWICapllB/rEfuUmJZ0ndnMf9FrJ/0XmNLUOCjR65KYn99np31meNM/xxs3lhOa1dbxIqbXxzK7ymwvXFha97uJ6OvvWSH0fs/lFEgcaxjAAAgAElEQVTDcfK4b3fhQJudoiIaKWrj0UM8509NX3z6fj4GIKUUsOP8KQDxMp/yXAYJPjM/ER1TzpFG5ShlU9f4OFJvsDg6tWRhOI6pWkeKSE7pb8hDUDpfpM4zpV8p8cz+Q29rVvvQ9CP3MyForE12bwrgxAfEiu98OpTfy32r9Fc/du2UBFjVb6AIRFK12CYyY18aI1QcDF4lXrbz65A+4pOZbCmvnb7kjN/0MQD58AdOgLbc4FOWyxhA2zUuRSKCg0zKOZR1dqTY+iX0rUjmV1gP1doM/TXq4VtO44BJ2SxS1ntXwAQCjUY+QViuGaJ9BH3loqVNp3GpwYqXjhLaY4eJlRseDOX7crA9af21F4OAP+k2MAjQ6gw9HnK3T2FBW8EjPmgMkP2R8HKP9oF7CrzE4qHzrweAwl+vCGV8w1cPMok+jjSphpABoOuQ6Ax97ylqA1NCUFBID8q4CjpS3HHYA6UcaAl9RYMOguPXgiUkkHr98NIDu1dNsOVCehD01jLLoWz/0p1i4uZlIX1UHrYfv/ZNIOEbZtDSPy5gBUiO6ZhDy4IWD8RQmnWhPNSP+PTG3h3e49OXnO71NhO5/dxfgPlj94U0ntGqS7EvsuPQlaM4gJBgwdcHmpH7OGBUD8IYfcCSqZbQhvejUZGF+24bU/qV92s9h4UsLUN9Rj18y+mSHqy+mn5AgHRrRpdUynvExC1eh1B1fhHJbG+YBDF7B54+xvku5gTwJqgHoro1lgFaXSQZQ6x7z1nniny/dhTmWdoMaKP/+fb0Jad7ZabyofP+AUCcNVqADDVaFZhUR4qtE0IGQI7Qq3CkhLGWns1iDpHQr1hHn+AB/Rwe5kswn+XQtxxvKWVDBmE6/0gZF8GW0SCM0KZPEJaplqJjrwBqH/KvxcSt7w7lQaJ6crA9dd3Vi5+cJ6JDUgJnX3jQdofcHNBmRmNZ6NbMP1V+dt74YZs/+aYHXA2g8wm9Hec/CgDPcC072terkCU4iUQwdZ3oQjrVQMp2pJqwstQ3QWE6EsHlfSoXc6S6kFr93TebpY5Juc4HSJkuU8DSu8YaeGjqyv1MAS2lX4hmwfUwzLtOx9m5o8XRG38Y0v/lYBtVftLHrt4IUqzON+R78tgE0iKgxZ1ff650Ive3lqt9xCffH4fMf/emS073+vqEfPjcE6A9xgejnFaOCoiijsMAVRXQQRypQ3+tDpjqEC1tJn926Fuu6ZJ19MnSO310HFMmo3Us66Ojzxxrx+W7bRzSPlJ1+ehhtqudYuKWoPdr0cw2+vGVF1194ZgQ67K+yRe0uoUab91qgKgIiNsKAq/EiA2g7R0coYI2O4JevWj1No36hawZbarRbin5o02XnHGkEy96F8sd518FEk71KTt6ZbDA0NEZZgyG4Ji689uV2sdxBHWkBJj5gKVTrW5NGtqsTI+y3wSljFE7rpBA6mnuZR8hD0ER5l1rHwY9Mn9yWKNWPdp3iYnvvjC078Mz24uueQ0IuKHfmA0iqSttA8n4lLCgTZZzzR/xwbuHL8YeaEG2xVdu+/Tpv+1qADK6VfDQ+TsBwOvZXNf2hvt6bA4I8EHfbxqVcyxbGCwhHY4uSHYcU39RIqYR0pGqwYoO7libvtvGDnqnRx8cLCF1DP0mKIJGhfQg1I8Gsyb7aF8qJjb2nsgJ59FQ2L7yw1c9b2x+6ydxqG30Aam+WLO1lC6D+VxegEd8NHNUxoGoGLRRkzNjYwff/qnTHnadenn/ecthTCRvBXMtPzrXq6B1XMTGbNbi+I0RekhHqvuqBmGs3tmsC/RUYBL6FTtSW5CvO5lKGhfSD1I5ZexOwVTGWfaWYUg9dI5MbYNyb9ZjjjNFHAM4Jx09svv2vkPFytuCPV8b+1AUtmvXXjb2yFGLnwKABQlEsHkuGbS5KdRGQMSv+EjTyeN8ZJwdMhY558IR61tpPAOSpzddcsYiH/DJh867HEC82afsaJRRIUt1HLpydXAcGqdsBRIydnLW4atjESBhjpQKJN9sFrMPQptkHVP1G4MwQz+cy+mARAEtYexxQJR2KMH1CBaUPigmbj20DN+HwjZq6KSLrvknKeQZSaNOsMUiQQRMOfGzBpS3GbwT/XkzdNII2ryxUUFb1sljJVP++aZLz3iOjwHIB8+bBsGvZ8S1UwFR1HE4gNbZIWLBHrG/PllYZ0kQ6y96YhiPqtOhPDJ9vnpQP+6OBR6D0MOhTZ9gSjvPhLMGpdtHakDJf5ash5TfEZPfPcHH19rKaGF7wkVXnS2E+CoWlKiVOpyoLfAsLZ5xUEEblaYeiBoIaDMBrWJQQk5vuvhM5HS4eXqlXDsGDz93D0gYtxnCaP0dCwYdFnEsVlKE4JiKAsnLkVK3jUPqUURHh7JWPTR1Vf6Ik8OYcnblUNYavGky4VwTlGzWkFVnHIkazOI+3PhecOu4NAGul320AebgjeKojZkv34XyjfrMdv3VL5IAPzC87aHLYZsYmQAUW9Q5C8s2aYhoSKAdupPHmEbtf9p06VnOL6SQ973/hTDe+u9QxtKMeigOgODkOpcQHJMarRaO0Al9881KE1+ocWC1dKREPUp/E1SqHz5zXGl23+BDUFbIaoDffR3nLtj6nGeI0y6fK8PXaWG7at11SxeJuSdMjVLvP3bHjy2K/KMOuFZ42S5sNfXGbUp6RpvtZSZKUGSwnc7u98mqUSajxXWS7dZbbvv0Wy5zNQD50PmXAMAHXMs183osiKE6asyRUkCLlXPMCmzBLHbiGV0ShLEG3RbUrUt1XRH6lVrLWdskBgWkcYW0D8vYk0EUBLTVNnRgUftHsOWus0Vcg2UOtIGHpS6ngAXz1dQ5yNy7v11MbnxpWf5PC9uowRMuunpaAKCfY7NCJDP+JoHW9l7osKCN7Hvuif2WbP7SqbtdjUDuOO8/QIqTXMs173rF/go5DoJjCp7NOgA6t9QIDrKQHoT6g+tBbLPjpIhAThs9qgehTbKOuQi71zqhjULveVZvK2D6ILZGClawclRAU/Uw6GMNPBA7UMcl5fvFyqnPleX/LLC96lwB4rNq41TQdiUcBGiLPOKjm/iuCmU/4pPRuivdvk2XnrHAxwDkg+d/DwQc41O2GWUQ2/NxHEk1jqD1cQA5/0RxwNgODzGyL6QHsW8kQJTsSFXgo/8/qENhDjpagymdv8WCDkIgUrp9pPqQ/KevHkSbx997vRf27DtQHLvZOamh+kozbNdf9StCik2ZoM822RntaKDF/Qteths86kSNA8ShfcSnL3Xfwe/edOlZfq9pfOi8BwHEs6nG0KzrQoIWywAsDqGw46BmBdghKKKz8nakxPpLPxSm6cfIHoLS6aGubELQ2HW0SkHCvKPlLLacqZbQBil407Wpe+RL/kBMTr+kTB9ohO2vffLfDpqb2fOIHraYQ0MywEwF8f/0y+a1NoFWJyIFtL2yWDCVjnTR5k33abMFCmf+GUctH9106VnPdDUCKc8Zh4eXPg0SWq5lh/t6nU0WcRwOZZ0dR94maffGPLOwZPk4jCmzZCnOMLVGnfXoFXAuF+lBgAiW0XoHHdSAiKqHQVsvPbA5Jsz7QPRwsKvcpZSyttdxygvE5PSnyvR9RthGDZ940VV3Aojl+YTSBFqNEWYgEkM5NTzk7/l1joO4u4a6f6v1Iz4Z0GvGkvzcGcn2TZee9YuuRiAfft+h0J53v2u54b4es0nKQlTsNas/ZqD4b0aHGNKRUrNZZB0GdaS6tagC02EOrI5UUxdpXCHtwzL2xEIyC773q68e1HJYIEYIRDrVU9pQrtH6bUtdBn+vzaqNayxDi+waNe927IWxsWeJ5bfuKtP/2WG7/qrzQYpLqdlaVws9iNN/w9dVvmx/TgygdXzEJ1uT6hzSkpd18pgE2qgjd2269Cznl2LLR85bDnOj9JpGzAH4Oo6onFo2JCx7a8QbLKpLIIyzkCMl1K+ueydHiulBbJMPQSnGUOEhKJ85zuGhzHVGfoHJJjE5tapM0EZ1W2F7/Lorj25Ba0u2I7rIZlAHoroGRs1os/M9CNDaApLuSHo923rbpWetdDUE+cj5r4I5+FfXcsN3PRbYER01ek+RkAGg5RyzAmuEThmXLvhU12cRPRzLGscVMmChOlKKjoS5KwwWBx29gjDdITkCzEi7ArrdH8q4Utf46GhdK9j82baNU55OiHPFxMY/K9v3WWH78j+5cv95i8XOPpdHBbT0R3w6U21bIBmmYw4gnuq+s4+uEgD/uenSs17kagjygXPfCa2xv3UtN1zXh3SkUV0Ex1TocAZ1+xfph82+tDtKFGeIOVLfcgRwJUZG0UPTDz4ElVqqZX8OD/P5jvZhBaZm7TmXi2Shvve6I+EekAsPFis3PFm277PCNurACRde/a8g4FU5Z5QLWEwQ6f4N9xnYxAX6uIA2NsCirb7cA3jEp6eOopOUW2779Ftf7GoI8sHz/hiEKD1ac+1XmOt1duYAy7gjnSKDAC3RWflkHclCK6KHOlOG/jo7xEzk2WuIqgdl5wHxND46Jl0i9o0UiIXUsc7ZbGoOfHT0Ci4dstl+wHezmJx+ZRi/ZK6FBNvjP3rlKa2WuCZXVWbN2EGbWwKJo8t3sv8nHMTdErKTURpQnflj9jpswSe1pqmrdE6pxWYUGabbNFJA2xmiJ2wfeP9HoNVaX4URVd+GGkE5OsOMIVKcty4wo7RbBCwUWI4KWHjbOO9/Vfug2LLnKXYnYGLrhbJWerZsDd6wtM0pm+1L2YJzxIqpv6nCh5Fge+KF1x4ixdwDmQ7VGrT5SaOCtpKv+GSyqmxmlTPJttxy22c8Mtv7378exlofqcKIqmsDC1YcFnFG96gcBWYhHQfmJLDf+AMCWZuiZixqEOagd7pBbRJgsTUnIFHBomkzByTCOkDH5VvOoq0VmJq151WOcjsC9VI7Yf4jB4sX3L23Ch9Ggi1IKU5Yf/U9IOG5vYQy6Rv6hijE6HAN8xPdtwfMCFLe0uFAVBmg7SaduRWa8xFdk9SMJfk5cyCqX0eHBwzbriAUR0p1HJQMAIMs1XkXcKQ+251JtxyDB225YXSkqn0QbCHvzHprz7Gs0Q8Y6rL5D/SpDmyOCfMe1K6o9uGgY+5SSllqEKZF6VVicuq3qgBt1AYNttHztuuufKsE8ffZg5iIIEVBm6dYXgspB3ryuDLQdh9nGvHMFrMxykJUHEISxREcE+neG9XhUAFNzWaxwMNXD6xvuiC39zuyvrPRobpcKVmHpv8kQIS2D8z1GmymsB7UueNnZ7Mz47ltnK5EyFPExPR19YNtvJWcrDnNolSMDw9Y8LJdf6hb7HHQWQZoi5w81gcc3b+YApLsyeNk0hMwdIqPMGwV7dK6ZFaIBaBVgtYaoevAgkAq5wVC6+HYZlVg8X4TFDV48NUxVX+mCgow1WCFGoT1rsu1R2iTFKxgQalj33KXW9Zj2i/66EgelxGj94nJqcOrAm3UDjmzhXXrWifIl/wUQBxuh4jmCq2zpJ88Dv8sbRHQYllGd/poGiFXqRqNJGyxAIXgXNTgJikSctvY0A9nx8EfEMg6Oz4ElY+vVHuj2DIfgrJCVMq/FCun/9B6XcAL6LAFgOM/etVvCQHforwhCg/wMUdFB21U2lBDbU4eBwNtl9ojltmGBC3RMRXdNq4ym9Xu/liCEW2gSynnmOl46+GQEcVOkDwupW5yuQCZn08Q1nsjXt/X67wfZVyEQNVHD+dx9Qp4laPcjiCTsQ1zYlIcvfG/yCUCXOgE2xPXXXFAW7Ye1+9u9VXM62kCrW4x91dU9Y/4ZPtEfWlFtxQGjLR3QHCcFMktnhGBrU4zXwdMAW2qbi8HoEZ/BKfmC8vEHH31IPbNO/Ao4EjJ24Lq2nAcU2ZJO5Y12oehLme74mdn7bsdOEvIPBTwXTEx9XLy9YEudIJt1ObxF155kwDoPwSMQKI60PZWj85noo4jBfBMdKwqmgoccnObA2JS2Au0Wkc6KpktBlpHZ5hxpCpoAzvDXNZBzfxcovMywaJzViowHebAtkZ0L7gngTakfVjGnlrJ+f/01YNabhCHoKh9w5wspSw1CMPWUIBDUCgo5e+IyenK367nDNsT1115RFvCXZ0xkECLO6JO0f6/9LGDw8nj7NRjk+wO2nwigi38br2FHvHRbJC3JWzZ3OjnbLHAxWERZwImSjabskfEfnNRdeYHnU2p/dX03wokZK1o14ilTXI5pU2jJpRxUeYuWiyOc5WZZ6Le6bnz0SPTDGVcVLBQdSS0SQpWAsxxzjQd5sBHR/K49OjQ/OVx2DPzbHHs5hnnkgULOMP2mHO+OL7ksEN2QRsWxIjJrAOCgffXM2ZMqQocQJu1hUGAFg8q+gw1PEtruBMtpdyy+TNnu7+usfYvtcCCFoJzyUZ5qYCP4rxT9ftAxepwdDZAcUwYaIvoQSmL6YGNwVBXaY40tH04zoGPfViDKY2/y4GFYstFDkHp/K5Bo8J6UNssK5tNuPJ5MTn1xwW56VXcGbZRK6/46Lfe2QLRS8O7IuJ2hgvc+XUgj/jQP5eX7yK2+NPhhv7v8feI3DXqZMsNhG1IR0p0TN73InvW7QwVrJwGxqSXFxDKdhcW4ggsv5XiSDVtNu4DAr1xBrMPgj2j81zCHHsFl0X0KBm0Atqwr71CvHjTj7xoWbCQF2yPO/eyReP7z9/tmtEmc0cAbTRlWlQrf+j/LzbRfYUS1KIVZ3+kHojShBrKFjtyldYxpot2etwg2OoCEvV3AjA6lxAcU/YtLD1jwC1L+/pGH0dK3gbDjNlXD4Ju6dDYeVwFHGlu25g4Bz46+gQPVrAYtPXRMVcd5vGw9eI4x5lxOZb10REdV5pSmj6QgrCitJPXionp3yxYi3dxL9h2s9ur/rYF7XfiNqrFpD2jHcjHBbKjCAdawksrdHlIrxPNgS0FKoTMLKmmDoegdI5DnVSikwsKlpBwoGbpRRxpSLAQ9SYHYpR5JraJzjEhaOxUT2kj9DpzaNM56OgFzFZAe/NNLXiymJy6PlhtjhV5w/bEdV9Z2G4/Y09eXxNodQbTz5Gb84iPCbR6Hbprqq9hM2CrOgDcRqwfBugUIzgmNHtzbNPLcVBPG/s6RN9yKXsLMi6KA+ZDUDlfjGZvBC1LD8Ko9kEJOhyCAvK4HKmGX/4jMTl1ZJCaPCvxhm03u73iVgFiTd+3lQXafGSdban3f2jzpvu0Si22CCv1d/MjPhrQJnZo0ik3siHeRg4Ah8zapYA2M0m9ZUFwaCigqY6D+iYopB9kh+M7Lt9yVAeMaUR9QXzZeljmPfmzg33YfIT2ESfVQ1NsOfQhqLL1oOpY8r1ZDIYC3iUmpr7syckgxQrB9phzvje++JD79oKMX/uYF7vzS/9f+k47nDwuA7RKQml8p3EZj/jodBrezDYkaImOiXQICg90Okaa+RPVcXhms3mDowUG2rVk6G+QcVH1oDpSX/vwLacEBU6g7V3so2PQbeMSYJmLldQ2QtsV1T6C8C2uZBdMLDxQiA2zQWt1rKwQbDvZ7YXfulW0YQ12P6FvzzoHF/uXMj4uMHwnjzUaDllmGyhbSZwABbSDyN6oWQemhyYbzC3eAGAxQsXQDy+wUO6jI20OJLt3nANnPXRBGAFmQfUwBJcZCajBFCW41NRVxSEoFIDyA2Jy+tOObAx+eWHYHvPF740v3r59DwgYU3vXDcIHAdoiHxfQOUfKxwXcD0T1ExVcp+HKbClwsCz+jAOgOO8CWQfpTVA6x4Fau/IjRQ/M6VOzsNBZh68jpWYrgQKx/qIx6935a0j7IAIpaDZLCAp89HAGbQEdyS8wCc63aP73wUHLDhSH/L+nyqjdpc7CsO1ktx+54h8FwJnphqmgja7TYgbzVdoF1G99MI/4eILWEpB0n7N92xC81EKdLKJjUme/U4ySzWKO1LFN52yFms1Ss7eSHGkyLkJgkywbz210kiPVBbDq74T5I4MlVZfzPBcBCzYmyrgI16R9nxGWlnk36hEwuOwEs9RxuWDL4dq2vEAcNf0phxKlXRoEtieuu3He3Oz/7AQBixIbIGS0RtDqgnsLbDP3U3PznP2hTo/44DMsI1vdsvmzdYYtFhFRF5jqEHUWYXDKRrAY+uHjgC321J3DkHpgMLYAujI9BpHNEoITrX9wsEnrPFOBRAwayUDC1ovqOSzj9LEP57XichK9NLZFH5B9GlpjB4vlt+4qsRVy1UFgG7W25kPf+qOxlvzzfuCpi666C0b/iE9vQal2lY7ANT6oDND2epsXNOlfmEd80BmTvZda1Ba2FLBYouxkLomOibQtGBKyRbJZKiyxyNIBDrlmDMFJxtDKzGaLBB4Uu7Joa4SKAdpeYMHmimDPfWeZmpWQsNQ5UYp99K7x0oMwdjKiClzYlu8TR03/eYEaghYNBtuoV8d/5FsPSCkP0W0Md3teDmgznwGwRKbUjFYL2sxa9XvnMeVedjSM6J7t92sHW8Qh+ETnHR17o8yZtcEh+ETnViDpIjgHx5Qeg7ceVEBjjjQkoHV6ONxHL6qH0zwPQo86H4IqqIfFh2pfsDGwQ1A5B/IYPGPmcHHY5uRNh0HJ6VFZUNi+/MNXHilgbitA/rBU0jd+xMf+KFQ3o+2FJnWDLSXroGazGGhDZqVYdG7IaoxZHxGCaLZCKKsFS0g9ev3wcqSD2DauIHjwfeSLD0FlcUO6d+9BKN8iAk4XE1Nf9y1eRrmgsI06+PIP/8vfCYC3o511AG3WPemcppJ7oj4++2N2jWAZWgI547O2RT4uYMz8+69prCFsVdA6OsPYKDrFqFtN6tw7tGmFCjWbJQJae07Bkh37ANop60sJn+kKUUuSI9WtJcvYYyvPZMGE4EQtZ9TDMH9eemBjIozTZ7fDJwjLDZfQN9LJfI2O9clmYyvaAntmfmUQn9EzQTo4bKPDUrOzj20HEIdkE4UynqVtziM+CeKVnal6bCOrkPVwhkkRLJu1wMwZLJRHWHSOQ10uBCD5wDLTPKGNou/xtTrgIo7U1z6UNn3A4gNLElg0c4IGcASYeYOWYhspHYPoQWwTvQWElTUhqIy/iVVicuOmMmouUmdw2EadOf6Cf36pFONTIMR4NwDtbovi05B3jP3rev+lmb8yDkR1m9JF6fHfkKu0Djf7FR/9ZHV1QJbtgO/ZUhypboGlfk/0ITimoT8E5aKHA9yNjtTQpo8DJjtS1T4IY8fWmHb9GBy/Fs6xphpb89ZDnSvC/Wt0XBaYGcdlWD/O9oH5V0vfEmkJYy9CJt+yEr4Mk1PnCKHBjW+9AcqVAtuoXy//0Dc/IYS4wHwgKj/Z2anWw7YM0HZRGha0/YRO54R6V2DJ2EAPSGE6EBdi7vGXqBylrApnTeBDfv8spU3P9xr7wCHDAErfCurhlc1ij20Q+uqrhxYsIYFUJPMbgkNQPsFDoezeAPwAUPKuQsJuGGv/olix6VHvOkosWBpsAUC8/EPf/C4ArMYx4w/aSk8eZ5xB939w2zaMkvjMMTbP0Ustvv/Zt1f8UgtlLKgjdXHAlMXpG2XrAjJim7lhUMalC5x8AWEoV0tHSrEPQqDkA+ggehDmuLcjl1+ThLMG5HEF0NFZD991VpNnZ00wlPA6sXLq6hJ5WajqMmELL37fVw5YvHjpVhBwWL6X2Ygxa3Y6B6rknhZHaX3EJxPwahxo8nO5j/jgs9h9qcX3P1clbFUHQHRMg3oTlA8stY6UAGife2/97Q1kmimgdZwDZwesewSrJD2SainjSl1jLIfBvQhYsLFXrQc1eDOMPWNxRc4yEMZeCEWFC38dJn7jTCHWYdFQ4cpDVFAqbKMOrvrgZceMjY1tAID9+h0uA7R5g6OfPC4LtLrovqdE6hEfXTDSOSBVCWx9o2xdOcripDpSjdPxAq2nw+m0RRmTcl0pYKEAmpBZxvs0pNOkvvZB1SPkmHptWu3Dxa4Ic+8TiKF2ZZk7n2Cq0CNOhLGHoJF3HeJ/YL+x54vn3vK4dxUVFCwdttEY1vzpN98MLfgaAMzDTgH1pxKLRGMVmvEVn2ROlUd8snPdB0I1sKU4Uk1AkjslG11HWZyUrCOwA/ZxhuQsuG+n/TmmAi91ndGRGubAxwHzIShl2WH6Eg4CkQMx3+ASK0cN/ijrTGOnuUe+dPZXAalMTeybe5l4yW23DbgX1uYrgW0HuBdcfh6AuDS6l5vuFQ20dXzEBzfQ/rozGSZ+8rirS3ZxlA9bFbQGwGXMCSvnWDa53KFc7lJiWRJokbpI5RBbQB0wNWMhjol0apvqSInOeyBgIQR6yNrJrCeT7aIBFTFo9LEPrd1b5t05EPPcxUE/IFBT0EI9Pp9nJa0KPkqBItes+dDlHwMpPozkAJpPYcXLRRfZ5R2E9T5thmWYc033rvt33MbzZftryBe0vdaywy1pG1mFpQUEOmeVOF91zFTH4QAWL9B6OhwfWGYkpIwLs2tKuXxQRgcL9iUWQpvB9TC0aYSKwU6t9qFpM/cz4RAUCmjCGvLRMYgehDnudJ849iIgCFa2fQVMPHetEJfPBauyxIoqy2zjMbz8T79xqRRwfnbqMwRU3LoJtFnjLh20SXM4TLvrKChooxpLgC0FtLpxqPNBXZzYHDsA2sfh+GQdxjm09De4IzXMgbceDppnomKKs6bYlQVISRUE+0uHwt56pN1NVAlhnOg8W8oZx2WYE+O4DG0660ENwkqkkVvVd8LihS8Vz9vwtFuxwV1dOWyjoa6+4BsfFwAXdDNrPWjNj/j4gbZbCjHSzGLo/k/uKq0zjV93bAJt/+Ue+HRrX+4RELbYuAnORVUj0YFSNnWNk8PpzQA+CYqElHER+qqd35BlC+qRM0xC38jbgkpdvnpo5zkkkFJCeIFFXYVRJQboJYEHRW9lknx0dB4Tdb1o+k86JDc4UCktPwRy5xFi5bYna9MjQuDk0XUAACAASURBVEcGAtsecM8VIC/pHJpCGUU/EEXNaLWgzayNwTzigz45053AQLClOFJdsKACguiYvO8p9tqzglbnODBHavmN/F5jzJFioZnBKVfqSD0/IOADiEQGRyAF0YPY5jB8QMBZD2y9UPWg7kwRaFLNJY8DiCPE5MbHqmkuXCsDg20HuB/82ltEa96XQaYfC0KQaHG6TXjEJz2l2eG2t3z/c+8s+FILFbTEhej9Jigs63Bo0wpZDG7U784i/fDZbk6qcRhXptu+5TRjR3drKI4U08MxeHAelxq8OYzJO4DTvSlMHX/Z9mGZdyNoAwaX5N2OcLApXJOEJ2CneL5YM3ygjcY+UNhGHTjug994CQgZvfXjF7qToWzyBgOtzkHHJmDKaPGy/eAfWwS9em2P+OgSpZ4WEL1Byhu24iMZAydnKyqc404SHFPuUSBHR+oF2pCHoHRzqQKCcF0yh7EtxLNRNmgHkc06Ato5e+vVb7UPKpAogQg1gMMWcdlzjOlBbHOoDkEla+YBeHzekeIVt+4qDO0BVTBw2EbjfsUH//EZc2L+FQBwQhnvPO6aoC6Cj/7WX3i4D8iX7Sc2BtD2HiTHr+j9igX56f5KueX7f+ab2aZgi4KWsDg7lxAdEynrMLTp44B9stKOORDGjtkNOWBJ2ZxxXAZoe+nhOFeJL/MIHpIhOmrZXzwat6fWl18rpINM6DxHdWnqT/fGZ70Yx2Vo09k+fPUYukNQ8Yxsgx0LXyRO2jA7IE4GabYWsI1Hsvp/ff0CaHUeDVqkOZ2UDJp6n9YO2v7iy7kMrWOlHIgyPUubj0qzbacXUwDY+oAlGTvFkWIRA6UcNVvRBUsEp4neDHfoWy4ZpZQtqEduuJQ2G/wBAXxhKg4QsQW0HMFmCq0X1S8b5s4IWY3NN/EDAnqURQrdICanTg5CuwFXUivYRlr8yge/+fwWzF4nQByZ1aZvmVTQds0VMfZMBKrBcS1A2xmBf2bbijJbgnPRAsmhrLPjwKJzzMFonJWPAyY7UaUfWluoiyMdxLYxMQAg7XZQwUJskw9BKa6TutsxYBplm98LEj4qVk5Fh2gb8U/tYNtVVYrVf3r5uZHYALAsDYz6g9b7EZ+eQakQ8oXt+9ZDq5W9Z0t+hpC6OHN9RRZFQFh2TIPicLEAi1IOg6wBBLnRFtAjWDZLDFhIOhbRY1DZPRYgEoLGoHpYbC0T7BMzYZ/gchgPQXXluAvGxk4Uy2+9vxGU7Q2iprDt9u7EdV9Z+PTeRf8IUkTbCAutoE35BjSjzfgO30d8dM43ZqW25e69ImXRZP8Xy/ZCwdbicJLsjeCYgh6CwhyTBhg+DgfNSglt+mSzmW47wj1zOaXsILJZIsiDZrMObeZkIwaN3qClzFPGKaXY4VDW2TaG7U1QiSy7QYjPiImNUZLVuH9qDdtY7aPP/+qSRWMLvhkdoIqg2/0dy17iv2icafLzsIC2M07PbeQ4s6VG2UTHRHKkhja9HIeDY0ovUR8nmpiWY5vGcYXWw3GuYk3IzxJjEaGvHr7ldEEttu6xNur6AYEq9CCMvV4omwGAf4c9M68Tx26O/ruR/wwFbGPljznni+Pzli37ArTgrQCwJDMjmaRQD+L4ZK0+ScqX7Sc5uoyov72JX+GT0SYesgBslUd/1CAlGRjFAaSuSf6TUq7nNPWCm6N90pttfOGAlXPIpJIpyv2HPYPx1oPiSH31UMaunWdqAFe2fWCPfBECkf6CVpw6ZVwOY8qZkkNZq31oAgxruVpxbB8A3AxjY28Qy4f3kR6qokMF2/SgXvaBrx0PAv5FCLEMJIz37doE2uhv3b/jNqkBbaeAAbRBHvHBpqyzJb3ldq9Hf6LMNg1bnQNWx2VwCJk/URxH7xrncgUAXZts1gBtq0Ms4kgpoNXZcup3HyAZ59nQpo99eB+CIowd8xCF9HBs00sPQpBBpUK510Wj2wOy/QWY3HSBEOhzheX2YEC1Dy1s03qt/pN/fqOE9hekFM8GAWNYxtvFqxtoE3fpDdo8NLLLDoNRv/e9u78BYKs60agN6uJU+0iBbAFYagMbQlDgA9qkWsq4MB0p5YrqQZkrpB9118M388uNi6CPDywz/SPYX9CzDGhKgKQJ1Hv3AyJMt9lIvDkQ8hqYgfeKF03fN9DeDKjxRsA2hSdxzP+6fOnY3Ow5MAbvgbb4pf5cDyVoIxPdcvsXfF5qEWW2oHmDVNWOwyGyz11KgBnqSH3LWZycT9aROxhH1YPqSJX6yHooY9UGHgYtnfXQBZhEm8x1hQJaqt6YHgQ7SmfCRj0M/XDWcRgOQcktIOAz0N71dZjcNiME+jjEgNBXfbMNg21WwLVrLxvbOgFj+z+2b+HcfLlKwNhxINrHgWgtBykPB4iyYHwBdP2VbnH02pH0k8fZmrAMKZfRdn/whu0f9R/9SZojOKZCjgNzpERn5ZOFkbNgBKAokKigJY6JdJhM0yb5lXoqaB37FptdVXr4BFPaeSbcv/axK23Qgc0VtpYd5yAIaC2+qhS2REYqtoOQdwCMTcHMzEZYMH8TzD6+FyZPmxViHeZwSunJMFTaaNhaJ2DtZWMnTm4T0SHnXff/qJZa7H/YC+WGdSc5v6ZM3t+DbeJEKQ6goOOwOlKNQ+BDUClTlQAzYiUcsf+PrPbLFygKbA6jSKBqwnSmhrXs2l/Cw8+S4rTh+Gh7XRSsJWDqIs4w96MDWxG91CICHHGLLhe4OwDaJzonvXoOy0op/VLKOWUrqbLGcRn64aVHb9u4DUeKX/46w3aYFyD3nRVQFGDYNtQkurBV7tlqb5mo278OMAuWzVq26JLtToe+WbdIS9gWtOqhaTOd3TNsG7oqeVijrADDtqGzn4etBVI+mZ9X9lb25/DUe5gY3Cy/BRmX7h6a+jtyCIph29BVycMaZQUYtg2d/Sxsfbc7fcvpsjdMbMIWd+mHXLBtY8cM2hnQ2OfOev1oC95Gbui65GGNrgIM24bOfRe2UvkQQYD7mNZtUg2krOWwe7PUrDRANptpygG01nHp9DAEGQzbhq5KHtYoK8Cwbejsy/v/cD0I9XWN6r1ZR5g5Z2/Ur/RgoHUAXubeLHVMWDarychzNuKrY1QR4dlZhm1DVyUPa5QVYNg2dPbzsK36EBR2b5YIM+9tY+p90tR1he9VU+Fu2DbO2KAEaLd4G7mh65KHNboKMGwbOvd92IYECzHb9IFlwizCPVztx+7VyQx8zznHVaIe5O+K9upj2DZ0VfKwRlkBhm1DZ78L296jP8bt38BAQpNLAkB9AK3NSi0Zbu2yWYXiDNuGrkoe1igrwLBt6OwnsC0FLKN8CKqkbDZ931nyNnJDlyUPa4QVYNg2dPI7sIX4pRYUQBQ49OOTlXaSOUq/lKzPJ3iwbv+GzO6Jh6A6dqe0G+shx/iebUPXJQ9rdBVg2DZ07ruwtTz6k4yd8qIJajaLQAR7c5U3aCsCtM/Ja/TerIceDNuGrkoe1igrwLBt6OzL+9+zHkDz6E9mzCpoiTDzgWXCHcI93KYfgkpvG+fGypltQ5clD2uEFWDYNnTys7ANuU06iEd6sOzQ8pvPdnNOJmJQ4B14EAOboh8lz0jl0KZVD80coF9xImjpo6PTPKf64FSuN06KHuP7LxQvuH5vQ90KD6uAAgzbAuLVuWgfttTtX4IzRL/S47FNmt6+zomoOkTLyWKsrsKO1AVIlGuRa5oAFtLtAcI3lDvyUHRUrtPOs6WuwvZh6O/4UoZtnR3jAPvGsB2g+GU23YWt+tUfLEInOjkfODR22zjSjHKfG3HKKFgIc+ADpEy1hDaKfOw+p0dPI1Mw1ZGH0i+qjtTdDmKA6KMHw7ZMtzbUdTNsh3r69J2X9//+eoDoe7bxPz2n5uOA0eSSkAn7OFKfrCPjOx2ct3VbULcr4NBGeoqGXg8NzEZ521jNyBm2DfWoxYfFsC2uYS1ryMKWkoX5bjcXyTqUNn2ytyCgpcKT8F7jjjX4jgsr55iFlaaHph+54I2gJTm7V9r0sQ+f4BKNKWzBZS+THz+At5Fr6REH3ymG7eDnoJQedGHbO43s7HCKbO8RnK0KpMLZrCOQnPWgvtcYA20T9cDsA9s2Rsbuk90nsjpq6WNX1t0OXdDRKzifYVuKQ2tApQzbBkwiNoQObKXt0R9qNkuEmY8j1WYrljYLO1IHx41uk6qqBwKL07hSbTqV62lrDTqo28YjdggqM/XKbgfDtqEetfiwGLbFNaxlDVnYEsHiA0tt1kFoc2DbgoS+dbaCKdvv1G1jQpu11kMHaMq4CNeoux2Fs1ligOhzCCruK7ZeGLa19Id16BTDtg6zUEIf+rClOLq6PDuL9TXlNAtnbw4OuLbZbNl6ULPZEreNneY5ZHavGXvusSTstkK8jfwMvmdbgj9rQpUM2ybMIjKGLmzVR3+o28YEQJOzMKUucjnF8fk4YOs2KTbOQRyCIuitZn5OehTZNsYCMd9tY8I4fezDeZ57BXLdUX/wsI/5DNuGutTCw2LYFpawnhXI+89ZDxJ59CfdXe9tY4LTDAGHXKJBcYaYI6X0l3oICqnLR0cfWFaqh+6QnAraQHoU3jamzDEWdFCz2UgPwtgZtvV0iDXoFcO2BpNQRhf6sA2YzXb8koNTiwfmk61kfKBDm85ZTuyAHUAeZFzYmCzb3D6AtupB3Tb2zWYtYzLOs2XenfSgBmFYf6m7HQDAsC3DnTWiToZtI6YxP4gubNXTyJ6w1GYdBAj6gNYKCA0Yncth2Qox0/EJOgpnb8S+eR/6wTK/SFTKPBOuUXc7StHD0A9n+6DudqTWH8O2oR61+LAYtsU1rGUNedh6nqwtlM0SsppEPTXzcHDeuUuJWerIHoLSZNU5PQjZbHD7qEt2bzgEZVrxDNta+sM6dIphW4dZKKEPWdh6gpaclSrOm1xOcaylbAsiYMndeyNmjORxDUIPXVaqGpcmiMn9TAAtqgchSCLrmJoXn6w0N62EvnXkctg2VuVl2JbgzZpRJcO2GfOYG0UCW1L2hsDGZ5vUB5ZWhziIbUEM0FRHnbrOSQ8qWELqUfGboArr4TAH1t0OTQZNXi8ax8GwbahHLT4shm1xDWtZQwe2beKjP7nkx8GpxWV9spWMv3No0znLKXJvlpj1dnRQQeswpoyOjm366NFpQu2fbzarAVfariqxj954rHpg/S2QzabHybCtpT+sQ6cYtnWYhRL6IO87R/nEHsHxl74tiGV9VLBQHSmWlRIe2VBhicKI2FcfsFgBoY6rgB5Vfg6vcDZLAHl67nx0JO/iEBYqw5Yg0mhewrBt6Lz3YUuArC9YtI408FYn6bWJmjZJ24IYoIm65bJZKhxS1/kAybpNqtNDNXhCNlvIPrB+WDQqrAd17gJls5zZNtSLhh0WwzasnrWprQtbmfqebW6fsvsDOQtTHBi5HAYVYoZY5BGWoIegCM7bR4+MDIQ24glzzt6oL6hA5qX03Y4B2UeRQ1CmVc6ZbW18YN06wrCt24wE6k8etmVnb9RshZr5+W6TUh/ZGCU9VKOKxq7Zlk5fSt5eTdXltNsxqOyeMHbfdciw9VWu8eUYtg2d4ixsQ4LFIQPLcdWhrFf2RtwSDfpxd4cx5TYXHMp66YHVT9CInKUH2O1wzu59g7CooRK2jVX/wbBtqEctPiyGbXENa1lDF7bt/DZy6duClCwnR53eDwUcKeW9tfE2bGnZm2V73BmYRfTAsjcC3INms0X0MPTVR0fyuAouZ4ZtQQGbW5xh29C5lff9bvY0MjlbURyk07ZgATgM1SEoArTSYHeGQ28Ocs1Qtj89v9LTadJxXImp+JazwDizNtVxEdsk37sP5AgYtoGEbF41DNvmzWnXzadhizpRzNEF2BbUwrmKbJYwJi0gLM7bOK6QWRgGWipYQm4bE9r0CeCcA48CAVzVoI2mjmHbUI9afFgM2+Ia1rKGDmw737MlOE11e9UJLNRt45BAqsshKCqgiUGA9+lr3es4CZmwdzZLHVPqOie7KprdE8Zexspl2JahaiPqZNg2Yhrzg5D3/u56EIRHf1DQOgLaOVspmr1RHKlvlu5bDoNKFdukIbNZAkB9stlMtRTbGrJsNr38GLYN9ajFh8WwLa5hLWuQ9/72ehDpT+wRnBzZkVKzWYPz9gE06RAUMs7SszdMDypoi4AFCzoo80y4ptBuBzXwKHu3QzcHJS5Zhm2J4g531Qzb4Z4/be+zsKVudzpkjD6w5ENQynxRvsakmbvcz9EPhPnzDjyCAnoOZPtGkPIGEK07odXaAXJ2J8zALIzDPJiVS2E+PAvmWssB2r8BAl4FUrS64umCKcLYq1jrDNsqVB7KNhi2Qzlt9k73YWtxQuRsFstWMAdcdjZL2OpMLqE4YGqWbqgr+VMVemBt+D476xuEWeZAF4gJ+e8A8gvw5O4N4tjNT9ituIfXLUcvgfFlJwLIdwPIUzLlBnEIytRxhi11WkfuOoZtQ6e8C1vDV3+0gAjpgKnbiRrnXdv3GmNbv8QgoJGHoCwBi5TXAsiPiombv190uckta1bCfLgQJLw5/6iSLtgp2qpDeYatg1ijdSnDtqHzLe99x3oQrdRLLVSH6LgtGGTbmNhmB7KOWak2myVAsFB2r9na1J0C99ER3fr1zWZL0iNTbTxIuQPa8C6Y/M7VAj8W77365LZVrwbZ+hoAHNTLf73rClqQYRtUziZVxrBt0mymxtKH7bBtk1I+h6e7b6dOpm+WTi1HBS2WCbsEHulxYYEI0g/ve7MEGCfdMYxLwr/B0+0zxUtvfrisJSbvOmIBzDzrGyDlb5bVhnO9DFtnyUalAMO2oTPdhW3qNDJvGyMfd6eCpQAsG7ltnNINsysh/w88+dS7xbGbZ6pYXnLryz4P0PpDABi8P2PYVjHlQ9nG4I1zKGWrf6flvW9bD2Ksu41c+21SwpZofyB98cnjUrJIcjkMKtRstnfdSG0bd6bmb+DrN/2+WBe99b+6f+S2VZ8DKf544MBl2FY36UPWEsN2yCaM2t0ObKEHW9JbpHy3m4sAqQlvgjJkx0FAOyTbxh0Z5PWw4tmnCnH5HNVOQ14nt63+F5DwhpB1OtfFsHWWbFQKMGwbOtN92DocNPKBAz87q1hQyGdniRm/9/1Z4n3jdLCmvx2xA8TcEWL5rbsGuaTk1tV3AcARA+sDw3Zg0te9YYZt3WfIs3/yp29bD630aWTL9qfWicYd0EDbB9CkZyOxQ1CGLDKjk2+WjpVzbNNLD0xbAgjR7XDq4S5C/R1NKfero2vaR4oVt/zI01yDFZPbVr0ApPghACwIVqlLRQxbF7VG6lqGbUOnOwvbEhxwrkqK8x7EtjGlX1SoUAMWy3WJzTXlAwLy78SKm99Zl6Uk7zjuiyDkOQPpD8N2ILIPQ6MM22GYJY8+9mFrgI1PFpbbNibCjJTNIpAiH2YaxCEoStanAe/QPjubNsbe+GfaB4qjb3ncw0xLKSKjU8l3rHoMhDiglAZMlTJsK5d8WBpk2A7LTDn2swvb9IcIFKdv3DYOCehBZLOOW7+Zy4nBA+leNRW0UZuEdr3vzVL1oGb46b62vyRW3PJ7juZZ+uVy6+q/AoDfL70htQGGbeWSD0uDDNthmSnHfuZhWyALI4EFg0UbYQgBKh2fT7wud3jHsVyQ7J4KM2zbeJgOQSHjnN17iDhq+iFH8yz9crn9uEXwhNwJAuaV3li6AYZtpXIPU2MM22GaLYe+yvve/mFow8e6RVTQVgAk0rYx0o/SD/2k2qwsu9cFDwTQDkQPcvCwD5bfvFAINC13sNZyLpXbjvsuSHlcObVramXYVir3MDXGsB2m2XLoq9z+tveChM8nRXzA4nUIapSzWQ2kUB3VH7HAwzEoyjRPqJ/0SA82pt5vEt4lJm7+soNZVnqp3Lr60wBwXrWN7lwgVm7bV2mb3NhQKMCwHYppcu+kvO/ss6EtvprNOSgOOHGkqUaJTp+UzSLOeyCHoLAxGTI6n+3mJh2CUqO2SI9W+xfE8lvvd7fOakrIu487AvbK6Lnb6v7ZsXBcnLRhtroGuaVhUYBhOywz5dhP+ZN3HA9j7e90ixFhSXqmUlNfDrSENsmQVdrUZumWNivL7rFt46hxQrDjfa/aEChkbAfbRncomx7C7t1LxLGbdzuaZqWXy62rnwKAxRU12haTU2MVtcXNDJkCDNshmzBqd+X2tx4B7dZdTqC1bhtjMPPcNkahQggMfADtk5X6PuKEHiYj3JvtDJ0QoKjB0yD1WPGqMSHWVfoOZKr9x9fJbat/DhIOcy3ndb2AH4mJqSO9ynKhxivAsG3oFMu71j4L5i/ckR2ewZn7AIm0bVz2vUhLVuaTzeaqJEKQtG2M6eGQWSYUyf1HaqoNGbRxnh3tY8UtrboejkrU2bp6CgBWVbLMhfh7MbHxbZW0xY0MnQIM26GbMnqH5U/P3gcCxrslNI7Ums1iZX2zWULmmgxP3e4kAq/IVrj3I051fhNUTzefYMqmx1DAdtUNAOI19FVT6Mp3i8mpvy5UAxdurAIM28ZOLYD82dnRNjLyUvYCDpiUzSJQJW8bK1AttE1aAaBJ2SymBzXwKFsPQ1ZtA/RQwHb1dQDw2kqWeQteJ1ZMXV1JW9zI0CnAsB26KaN3WP7srTcDwCuyJShfpdGAgA9BZbdqcywn3Jv1CR4y00E4ZFX8kR7FyDRBy4pbh2Ab+bjvAMjj6aumyJXipWJy4+1FauCyzVWAYdvcuQV571n/AlL0vu+JZbOGrCaji++2MTWzVPrhAyTne5G9Nm3ZG7b97p3NYnoQMtzgehjadNHjslvHqv5IvOtylVtX3w0Av+xazuv6VvuZYsWmR73KcqHGK8CwbfAUy+1nnwBtuaFzv9br3mx0q5eQrZGBZIGv02Em9Z4uAVrJXBfZRsfGoGqEXON90pg6rgHoMb50oXjB9XvrvITkttU7QcL+lfRxz8x8cezmmUra4kaGTgGG7dBNGb3D8p53LITWzG6QoMwzJeP0zWap2XLZ2ayhH9bAQ6NP3beNXbLSdODhpUcbQMzVOpOTW45eAvMW7QIQFfg5eaWYnH49fXXylaOmQAVGOGqS1mu88p6zbgcBL+72igJZ7Cs9RID6ZG9J1ZS+pfrhlAVj5ah6YM+/6h4tVQ8zUbeN1XIOfRvke6/n5taIozdtrJfF93sjt66+AAA+UUn/WuJUsWLjNZW0xY0MpQIM26GcNnqn5U/P/AaAeJM/aAkQ9LmnmOFJjQ79ZKT1/EpPY/VQdjsEPCwmNh5Mt8Zqr5R3rL4SBLyuklblzHPFys33VtIWNzKUCjBsh3La6J2W95yxHIS4M1tCc9/Rup2IZFzkbFYp6wMk50NQdbk3S8hUK9Gj1w+f7WbdvfuxsaVi+a276BZZ3ZVy6+qoX/uV3qKAOXho4UJ+J3LpSg91AwzboZ4+e+dldL/2Z2dGEfdzulcjWSQJmEN46McneOhIpBakHBIr8rpFAozVuat0G91wAKwt3iiO2niF3RKrvUJuW/0nIOHiSloV8n1iYvrPK2mLGxlaBRi2Qzt19I7Ln57x9wDirTTQ+m4b+5azgMY5C8OyWU2QkZMw5LYx4X5t8GzWoKU18PDe7ZgBuXO/un1WTt6x+m4QFT3yM9Z+vli+6R76iuQrR1EBhu0IzLq8+/TDYZ5I3U9q8CEoK1Q0QMpls1FFhHvJpF0BpM1CoCUENulM2DlgoT7y1Vs8LflmsWL6m3VZSnLbqvcAiL/In8Ivo4fiSZh4zgFCXD5XRu1cZ3MUYNg2Zy6NI5E/O+MmkPDK7jO3BIiooCHDQalbu91pAYbPNqkXaD3fa0zWQwHtUOhBsY+0uUU3dFvPEpMbHxv0curcNtm6+kEQUM3BrTnxBnH0xm8Netzcfv0VYNjWf46C9FD+9LSTAcS1Xi+3GEj25rD1m7uUmPmR3gRV5F41Blpi30gfVDBsVXtls8RsHrVI+a8wMf2aQX8FSG5bdQVIUd3zrnLn/mLltieDLFKupNEKMGwbPb39wcl161rwtm0/ACGOSv2qjL4IWFJlnbJS33I9kHlls54fdw+ezVoCCicdU3V5gZbwFizrWhHvFZMb/8J6WUkX9LaPvwASWiU1oVb7STE59aGK2uJmhlwBhu2QT6BL9+XP1r4Z2q3LSc/comAhZGU+QHKGQ6+AFbSa/qLlLFun5Oy+7GwWAzQ18NDp4bptbLC6Vvs3xIpN33axyxDXyjuPew205ZUAsCBEfaQ6Fs4cIH558xOka/mikVeAYTtCJtC5n3XPabeBgGP02a3nIywJAwhA7jSuAtOhnBWyGiDxIaistZPee+21QE4Wk1PXe5X0KCR/uOrV0IJvAYjFHsU9i8hPi8npD3gW5mIjqADDdsQmXf7ktFeCgJu6w1aoRc5KsXIY4CwA9dkm9QJtyENQhvuksS1px1UnPQJms9gakvIPYHL6r8q+hyvvWP0OEPBFAJhf6VJ+QiwWazbuqbRNbmyoFWDYDvX0+XVe3nPaPwHIMzKlR2bbOBooIYtu5LZxvJtQMmiToEN+Fdrj7xNH3/K4n6XqS8nLYAwmV0f3h38PQP3QRujWlPokvEOsnPq/JbfC1TdMAYZtwyaUMhy5fe2BMAv/BQDP6ia4BPgUyoRTWW9l2WzFb4JKhuiopY8euU0ESpvUZ6spFuRwjYD7QYoPwMRzvh7qWVS57bg3gJRfBoADHXoS5lIJD8M3pg6p+3d8wwyWawmpAMM2pJpDVJe857QzQMoow0V67bvd6VsuR49en3y/w6uWo2azWD+asG1M/VximQYst4GAj0F70TVi5QbnR2WkPGYc/mv8VGjLjwKIF5XZU0PdbZg382xx5OZHBtQ+NzvECjBsh3jyinZd/uTN/wAAZ/XrIYCXfF8Xy2apMFMPTxlgrIowVIegqHr0rstMD2Gu0BeY2eCYVwAAFYlJREFU6LQsak3k8k8DyK9BW14NY+IOaO/6GfaqR3njifPggD3PgwVyEtriZBDwdgBR7X3Z/JA+ISanPkweKV/ICqQUYNiOsDnI7526GA5c8EMAeL41w3Xa7kyBwKkcBpUioCV8QMAneMh0iQi92M589MhJQGyT9KawAS+A6Is5UvwMRPshkLAHhFgIUhwC0H5eNR99J45fwH+KialBZdTETvJldVaAYVvn2amgb/LHa48C0Y4+AL5Em+H6AMknC0O5SjnM4/sBAQq0kE5Vogc18MDGUIdt4wqMt6ompHwKFjx6kHjB3XurapLbaZ4CDNvmzanziOQ9b/4tkDL6TJrwfxwoBSWf7C3HDCIIa/s5vIJ6eGWzjh8QcLaUkSwwAzD3EjF529aRHD0POpgCDNtgUg53RfLuN74XWvD5ZBRaYIY8BIXdm0XTW813eFXNfbeNqYegiAFA+tBZZYEHZ7PBV2C0xS3ke8SK6S8Fr5srHDkFGLYjN+X6AcufvOlSAHl+lxWOYDFuGxvqct5u1j2qRHi370AeccK0NMDdSw9CkMF27qqABBCfEZMb+S1Rrsrx9agCDFs2jH4y23md4xu/BFL+bl4Ww73TwtkbIbOMO+SzbewTPGQYSbxvnPQx9x8pOUMHHoQgg23cVQEJUvy9WLnx7a4F+XpWQKcAw5ZtI6NA9/3Jr/8qSPHW7h9CwgHbNnbIoHOXEjK62mSzhgzXer+aD0FVuEwZtBWKPUpNMWxHabYdxip//Ft/CSDeo81wC2ezFpCnG/bJZjvVO4DcKytN1V+pHpzNOpiyy6XR1vFXxOTG33EpxNeyAhQFGLYUlUb0Gnn3Gz8Cor0+l+E6gYWazWoyP69s1pBFZvP47MwG3242BBTWbBYry4egyluK0SeQxKf4pRXlKTzqNTNsR90CLOOXP37dKQDiKgBoZXeUHe5jeh360WydmmDpm80mXHPMhCs9FEbYMmdb9lVgFlrwLrFi6u98K+ByrIBNAYatTSH+O8ifnvo8mB37bwA57nRK2QrZsrNZQoarzdIt4HXK7nv98MpmsWdndQfK2Fg9FNgLM3PHiBfzc7Qe2nERBwUYtg5ijfKlcvvaRbB3b/QCduUD3ZoM1wpaDcy8to0dM9J4In22jZ3HRd1G50NQA1hfd8P8R1bym6EGoPwINsmwHcFJ9x2yXActOPvU/w1S/J42w7Vmb5qsjA9BZacluoVo2zL3nUguB9CWfwvfnH4XfyqPjaEqBRi2VSndoHbkj09+IchoWzmTIir8dcg2vbJZwhZxp3sFTwznmvEdl27rV/2dD0GVulQ6b4USvyZWbLyp1Ha4clZAUYBhyybhpUDni0EHwM0A8qUq08j3dav8HJ7PPdYMaB0g6wXoAX3c3Wv2h7bQv4Nc+Hqf7+kO7Yi547VRgGFbm6kYzo7IO09ZA2OwAYQocHgqGjvhtC35HqsCRnK5AJmw9Z6uJiMfhs/hDaeJRr2eBYDXwcTUt4VADW14R8Y9HxoFGLZDM1X17ai867VLAcb+AkCene0l5RBUdA0hayz9BRUpCBqBaeirFbR8CKp6K5ZfgsfnnS9eceuu6tvmFlmBvgIMW7aGYArIu19zBMC8fwUpfylfqec3ZzsMJMBY3cvWZrOazDLusM92s9ehMGzbWHdfN9gUjVBF8gcwI98CL950V/67kSMkAw+1NgowbGszFc3oiJTrWvCT234V2vIyAHhGl4GajC43ZMr2rwW8PrDM8Vdtg7PZIbLOx2Fu7jQ4askGITZE28f8DytQCwUYtrWYhuZ1Qm759SWwYOwt0II/A4D9+yPEto0RmHlns1jmavnNB9DWbFaTQZPH1TybKHlET0NLvhXmHXiNeMH1e0tui6tnBZwVYNg6S8YFXBSQt594ACxeeCYIuBhA7pcvS8lmNeBKV1bJIaheX73uzfK2sYvd0K+Vu0HC78Cy1pXi8I176OX4SlagWgUYttXqPbKtyR+/ahnMtt4CID4JAg7qCqGC1vfeLAHGifIUYFIOdrlk0PzsbHDDF/BzkPIPYP6jN/AboIKryxWWoADDtgRRuUq9Ap3XPu7Z9VqA9scBYEWfgb6g9S3nAkv1cJdDm/xIT+jlcCNI+TGYnL6JH+MJLS3XV6YCDNsy1eW6tQp0Xv34ll9fDS14L4A8PXthEw5B8bZxQPOfAQGfAzn3VTHJHwwIqCtXVaECDNsKxeamcAXkva8+DHa33wyi9X4A+dz8VSn4ag8z6R6bUbeNXbJStSfEU8p8CCqMqQvYADPyL2Fm9jpx7ObdYSrlWliBwSjAsB2M7twqooCUa8dg22NrYEycCUK+HQAWZS7jQ1CjYDd3gRB/AxKuEJMb7x6FAfMYR0MBhu1ozPPQjVLec+JC2DvvNSDkWSDhDQAwL/+mKWo2Gw2fmpXaslmsrug3PgTlb2TixyDa/wQgviUmpr7vXw+XZAXqqwDDtr5zwz3rKSBvPHEh/MK8U2Bu7o0gxCkAsMz6isfCz866bDdTQM7TmSggOpHP7SDFlQBwtZjceDurwwo0XQGGbdNnuGHj6xysOuOkkwDgZJDy1SDESpCQfSOfE2gpjwJxNhvAjHYCyBuhLW4AmLtWHHXb9gB1chWswNAowLAdmqnijmIKyLtOfA7MyjdAC04CKY4HCc/sXkfJNrH3NVMyWv4cHsEao1clfh9A3gRtcR08svAWcRK/PpGgG1/SUAUYtg2d2FEdltx60ioQ7VMA5BoQ8DIAsb92y9nrTVB8bxa1LSHbIMUPQcJtMAbXw7KZG8RhfIJ4VNchjzuvAMOWraLRCsg7X7kGRPu1IFurQMgXgYSD84kvMZuNsmXSO5EbLWk8uCcBYCuA/AHMa90A8xfcIJ634emRGDkPkhXwUIBh6yEaFxleBeTW446AsXmvhjl5Egh4AYB8IYBY3B+R7lWNlG3p4dXF2HMBcyDhJyDgv0HK2wDEt2FiapPoHnTif1gBVoCgAMOWIBJf0lwF5GVrx2By+7EgWicAiDUA8DyQ8Isg4IDuqEds21jCEyBgO4D8GYD4Hsy1/gOO+vVbhFjXbq4V8MhYgfIVYNiWrzG3MIQKyLvXHAx7ZQTgV4CQywHgEGjDoSBkdABr2NfNHAA8CgA7QModIMQdAO1pkHO3iJWb7x3C6eIuswK1V2DYnUbtBeYONksBGT1mdOeaSQC5CqC9EtqtCRDyGb1nf/cHaEUHspYMEMjR1u5TIOQukLATQPwPgHwEQPwXtOAO2Dfzn/DzJ7aKk+/mb742yzR5NDVXgGFb8wni7g2fAvKu1y6Aff9zOMzCc2GB+EWYmz0UWq1nQ1scAiAPAgGLQIpxgPY4CNECCfNAQgtasr8eO3dDRbSHHZ3ybYOA6FGaGZAw2wEpiIdBwMPQljtgrHUvzMzeB+Nj98Lyw7cLcXmUufI/rAArUCMFGLY1mgzuCivACrACrEAzFWDYNnNeeVSsACvACrACNVKAYVujyeCusAKsACvACjRTAYZtM+eVR8UKsAKsACtQIwUYtjWaDO4KK8AKsAKsQDMVYNg2c155VKwAK8AKsAI1UoBhW6PJ4K6wAqwAK8AKNFMBhm0z55VHxQqwAqwAK1AjBRi2NZoM7gorwAqwAqxAMxVg2DZzXnlUrAArwAqwAjVSgGFbo8ngrrACrAArwAo0UwGGbTPnlUfFCrACrAArUCMFGLY1mgzuCivACrACrEAzFWDYNnNeeVSsACvACrACNVKAYVujyeCusAKsACvACjRTAYZtM+eVR8UKsAKsACtQIwUYtjWaDO4KK8AKsAKsQDMVYNg2c155VKwAK8AKsAI1UoBhW6PJ4K6wAqwAK8AKNFMBhm0z55VHxQqwAqwAK1AjBRi2NZoM7gorwAqwAqxAMxVg2DZzXnlUrAArwAqwAjVSgGFbo8ngrrACrAArwAo0UwGGbTPnlUfFCrACrAArUCMFGLY1mgzuCivACrACrEAzFWDYNnNeeVSsACvACrACNVKAYVujyeCusAKsACvACjRTAYZtM+eVR8UKsAKsACtQIwUYtjWaDO4KK8AKsAKsQDMVYNg2c155VKwAK8AKsAI1UoBhW6PJ4K6wAqwAK8AKNFMBhm0z55VHxQqwAqwAK1AjBRi2NZoM7gorwAqwAqxAMxVg2DZzXnlUrAArwAqwAjVSgGFbo8ngrrACrAArwAo0UwGGbTPnlUdVjgLG9SKlTFq96KKLBr62LrzwwqRDQli70+98OdpxrazASCtgXYEjrQ4PvokKZGw+BqQJjlu3btWuk7Vr1yYabdu2rbbraWJiIgPTyy+/HJ3byclJLXRjeCPgZlA3caXwmIIqUFvnEHSUXFnTFcgBFIOnCs0YlC6QvP/++8UxxxxD0jO6lnRhCRcddthhZAA+8MAD5GtjaKuwxiAdwZnBXMLkcpVDqcDAnMFQqsWdHpQCiZ1GmagK0jREKQA1AVMHyMnJSXjwwQet6+Wxxx6zXlO1iAceeCAJpo8++qj2OgzemzdvBhPUMTAToUzqb9U6cnusQBEFaucYigyGyw6tAiSY2kB66KGH5uxZhacJmlRQPvHEE+Lwww8nib1z587K19jSpUtJsNq+fTssW7aMdK0O2IcccojcunVrRgsVwBQox5myCmMkOyb1lzQ5fBErUKEClTuCCsfGTdVPgY69YfdJ4+w0AqpuW1eFqQrSgw46KGfPJoDqoKkD5KGHHgoUeD755JPWdXXwwQcHmZ0dO3YY69lvv/2scIrh/MADD+TqwsBtgzQGZjVrVoGs28qOsmMiiK3jDCI4V8IKeCpgdQqe9XKx0VYgsat169ZlbMwGVRNQVZjqQIpBVIWkDpwqKHVQNAH1mc98ZjL7Tz31VKVrbMmSJRnoPPLII1pLNIE4DXHsugjCKpxVMJugrALZBGMMxDoIK5kwA3i0/VCtRl+pI6jVyLkzoRRAwWqDqnrfNJ2lpqGqA+rSpUuTdlWQLlmyJGfXaTiqAFXBGcNSB8rdu3db183TTz/duWbZsmWhdCbX88QTT3SuXbhwoRU2ixcv1l4TgVuFNQbeGMzq31QgU2GcBrG6TZ3OiKkQZgCTTYcvLFEBq9MosW2uejgVSLaC0weVIrjqtoDT2aoLVHVAxbLSGJgmkEYQxQCKwTOCJQWUVKjG15U55Ta4ukA4uharD4OzCmUVuj4w3rlzZy4ISEM4nQmbAMwZcJkWx3W7KMCwdVFrNK/NwdWUtWJgVQ8lYdkqBlYVqhhQ01kpBlMVpCaIYn/DILl06dKOJfgAdP/99/cuq5pfDMNdu3Y5W2ZUdufOnWg5FbI68EaFsb+pQDbBGAOxLiPGtqVDAnjdunUx4K07As6Cc4GRV4BhO/ImkBOgMFxt28AYWNNbvyao2oCqg6n6uwrKCKAmeEaQ1P197969pHUUX7fffvsFtbonn3yyU9+CBQuskDBdMzMzoy2PwTkNZR2Q1d/TII7vL8db1emMGIPwU089lfQv3pKmAtg1++Wt56AmypUBAMlJsFKNV0AL2MnJyYyNYJmrCa7UjDW9/RvDVgVrOkvVZaHx1i8VphhEMXhGv2GQxK5dsmQJyWD27dtXaP3Nnz/fCtennnoq1xcMuBGwsd+x33RQ3rdvX9IfG4htEKYAOJ0Bp+8Hq1vQcfabvv8bwxd7LCneek4/hsRZL8mk+SKDAoUWOys71AqggMXuu8aAxe63qlvCNriqWSsFrAsWLMjYaRq0aahi2SkFpuPj45n60wBVwakCcvHixYkRUOA5b9684Gtu9+7dYANv+u/R9el/1LJpQKuwVaGs/h0DcTortkF47969CbDVLFgFsCn7pcA3vu9LyXoZvEPt62rR+eALvxaj4k7oFHDOYGPApu+76gAbnwrG7rXGmasNrth2L5atzp8/P2O7KlTVjDMNVB1MY1jGAMXgqYMlBbRpMEcTRCmjm0gVkCpAsXI6IM/OzuYy5PjauF4dkNOwNYEYgzCWCWPb0RiA0/eB4+1nFb5Y5qvLerEDV+ppZ8542bEWUYBhW0S94Snbmef4mVfdASc1g9UBNv0cawxY9Z4rti28aNGixN7iLWEKXNWM1QRWDKrp7DQNVBV2KkgxGJpAHGk8NjZmXVMzMzPoNQsXLtRa1NNPP5372/j4uHUbOSo0NzeHXqcC1ZTtqkCOymIgjrPiNITToNX9HrWNZcAqfHXbzzF81fu+6f+P7/nGWa8OvFFf1KxXBe/WrVs7msYZb+oeL2lOhsd1cE9DKWB1DKEa4noqV8A7i43vwdoyWB1gsew1fb9V3RaO/z/eElbhqstK1d91UFWzyDRUsW1h9TcMoDEw04DUQVQ384sWLfLKbiPQ7dmzx8mg0mCOwa3COqpTzWDTUI0bVK9JgxiDsApgXQYcwVY9WR1nv/H2swpbl6w3Bq9PxqvbalazXT5Y5WSWI3Uxw7Z50026F2s66JSGbHwPFtsijqBq2h7WARa756puC8cgTW/5qr/FcNVlq9Hvukw0+j0NVRWoEThjkJogqstkZ2dnxYIFC4zWFV1TxPzmzZunzaL27t0Lur/rMl0VyCqM0+VsEMYAnIZ0BGAsy03/psJXzXxdwKvLeNVsVz3djD1aFIM3ne3yFnMRSx6NsoUW+2hINDSjdIKs7V6sCllTFqs7NWzLYNOATW8Nx4BNnwCO/lvNXFVg6jJWE1htUFVhqkI0BmYarBicTVvELhmxaevYtNUcwTf+Jw1hDMoYjON2ozbSfTABOA1XE3zVzJey7RyD15bxpg9Z7dmzpxOcpO/xhsh2TdDlTHdo/GfpHWXYli5xJQ2I9Kfn4nuyusd2YtBi28U6yGKniNOQtWWx8RaxLYPVARbLXilwjcpF27XRPyawpqGaBqoK0zQYKVvIUfn58+drjcA3u9Vlrfv27eu0hf0d20qOro1+j2FsArEKYRuA1ewXg298jS7rxcCrZrzqVnN6azmd/cbgVe/vRgerqND1zXT5nm4lfrDWjTBsaz091s55ZbMYZONDT7YDTxF0KZBV78OmIYvdgzVtEacz0xiwpsNNMTgpcNWBFYNq+jcVomloxlmumrGatpWp0NVBNp25xgCNrQcDaQTldF1pcMblMAirmXAawBh8dZkvBbyUjDcNY1foUjJd3SNEMXRNB6l4a9nqv0bqAobt8E43ms2qz8mmTxjrThebsln1nmx8otgnk7VBNn0PVrdFrHs8xwbYdOYa/3c6a1UPPKVB2Wq1knWShnP6mjRI43rjjNYEUvVvWBYcZ6u6jDVtwmmAqlluGsgxGNPwtAEYK5Muj2W+6W3n9N/VbeVoDPFvukNW8f3c9AGr+DcqdLEDVSboUk8wm6CrnlzmF2QMr9Mt0vP/D5OnYpVUrwWuAAAAAElFTkSuQmCC;" vertex="1" parent="1">
                    <mxGeometry x="160" y="135" width="45.67" height="50" as="geometry"/>
                </mxCell>
            </root>
        </mxGraphModel>
    </diagram>
</mxfile>